<svg xmlns="http://www.w3.org/2000/svg" xmlns:xlink="http://www.w3.org/1999/xlink" width="1920" height="1315" viewBox="0 0 1920 1315">
  <defs>
    <clipPath id="clip-path">
      <rect id="Background" width="1920" height="1315" fill="#d8e0e3"/>
    </clipPath>
  </defs>
  <g id="Mask_Group_10" data-name="Mask Group 10" opacity="0.05" clip-path="url(#clip-path)" style="mix-blend-mode: luminosity;isolation: isolate">
    <g id="Doubs" transform="translate(-2233.249 -1052.98)">
      <path id="Shape" d="M2046.58,633.12c0,619.7-991,1623-1358.909,1623S0,1867.12,0,879.773C0,339.863,267.78,0,635.691,0S2046.58,13.419,2046.58,633.12Z" transform="translate(83.7 137.923)" fill="#e16197"/>
      <path id="Shape-2" data-name="Shape" d="M288.426,1701c-493.858-92.029-233.816-723-93.249-1045.115C325.4,357.476,618.379-51.495,1117.912,5.34,1702.917,71.9,1919.647,772.729,1857.76,1049.571S782.281,1793.027,288.426,1701Z" transform="translate(0 977.562)" fill="#9844af"/>
      <path id="Shape-3" data-name="Shape" d="M745.614,1266.34c-493.937-92.079-878.52-378.029-702.027-832.449C292.656-207.379,529,35.555,1028.61,92.421c585.106,66.6,785.338,562.12,723.436,839.108S1239.552,1358.426,745.614,1266.34Z" transform="translate(273.556 1314.909)" fill="#f4f3ef" opacity="0.1"/>
      <path id="Shape-4" data-name="Shape" d="M561.848,1013.024C163.514,938.64-83.611,696.872,26.1,452.962,127.735,227.01,607.353-214.7,777.153,122.586c251.143,498.844,637.7,434.475,590.82,644.621S960.175,1087.412,561.848,1013.024Z" transform="translate(322.553 1786.449)" fill="#e2164b"/>
      <path id="Shape-5" data-name="Shape" d="M182.328,351.347C289.555-78.444,861.561-128.282,791.04,281.58,742.332,564.69,887.359,748.991,1119.2,994.2c175.385,185.5-286.432,465.093-993.681,122.616C-61.947,1007.35-36.513,664.639,182.328,351.347Z" transform="translate(142.903 1570.249)" fill="#2e39a9"/>
      <path id="Shape-6" data-name="Shape" d="M156.3,115.516C562.535-465.133,910.569,1353.752,185.071,930.81-49.975,793.783-62.859,428.766,156.3,115.516Z" transform="translate(57.161 1766.879)" fill="#0ab7e0"/>
      <path id="Shape-7" data-name="Shape" d="M843.562,127.775C792.983,556.8,2144.837,153.716,1913.84,529.938S1063.536,1061.7,731.392,755.3C459.311,504.31-168.278,785.509,42.512,489.247,232.8,221.812,884.48-219.274,843.562,127.775Z" transform="translate(1527.024 332.688)" fill="#ffcd00"/>
      <path id="Shape-8" data-name="Shape" d="M1029.086,670.737c-461.871,24.277-261.614,555.7,136.6,738.292C813.418,1409.028,0,1106.085,0,735.648S39,0,391.259,0,1029.086,300.3,1029.086,670.737Z" transform="translate(2580.425 1536.7)" fill="#0ab7e0"/>
      <path id="Shape-9" data-name="Shape" d="M1056.464,777.435c0,429.366-262.355,586.862-544.89,586.862S0,1016.228,0,586.862,262.35,0,544.89,0,1056.464,348.069,1056.464,777.435Z" transform="translate(3325.564 568.459)" fill="#e16197"/>
      <path id="Shape-10" data-name="Shape" d="M764.77,965.325c-184.945,108.687-313.809,92.817-562.639-28.423S-68.844,632.545,152.667,254.92,571.653-3.808,764.77,124.8C1017.239,292.936,1245.9,682.581,764.77,965.325Z" transform="translate(3034.654 0.001)" fill="#9844af"/>
      <path id="Shape-11" data-name="Shape" d="M796.11,3.764c645.8,58.975,888.462,822.068,842.966,1239.431s-305.166-55.43-950.964-114.405S149.124,928.566,194.619,511.2C-264.395,599.838,150.312-55.218,796.11,3.764Z" transform="translate(2556.948 467.814)" fill="#2e39a9"/>
      <path id="Shape-12" data-name="Shape" d="M608.919,2.682c352.426,32.1,453.879,657.694,429.049,884.842s-166.533-30.164-518.96-62.265S-22.655,686.994,2.169,459.85,256.494-29.414,608.919,2.682Z" transform="translate(3054.702 929.144)" fill="#f4f3ef" opacity="0.1"/>
      <path id="Shape-13" data-name="Shape" d="M844.18,1.544c231.3,21.073,53.027,526.76,31.139,727.045s-108.928-23.15-340.235-44.223S-20.831,579.24,1.051,378.962,612.873-19.529,844.18,1.544Z" transform="translate(2784.573 1097.777)" fill="#0ab7e0"/>
      <path id="Shape-14" data-name="Shape" d="M1239.753,419.408c240.282,395.5-10.429,982.509-294.985,1127.527S257.517,1260.823,55.734,931.058,231.678-91.979,681.69,10.169C916.528,63.48,1122.4,226.264,1239.753,419.408Z" transform="translate(2887.666 1368.027)" fill="#9844af"/>
      <path id="Shape-15" data-name="Shape" d="M891.042,711.737C904.085,984.214,798.359,1177.5,625.381,1265.7S200.2,1108.982,84.96,891.125C-160.886,426.373,169.723-192.926,529.8,57.683,750.727,211.446,878.9,457.922,891.042,711.737Z" transform="translate(3214.303 1645.733)" fill="#f4f3ef" opacity="0.1"/>
      <path id="Shape-16" data-name="Shape" d="M515.649,216.3C528.686,488.835,388.5,756.333,250.13,770.379,59.244,789.748,5.754,576.9.155,401.474-5.592,221.37,149.369-243.2,250.134,159.9,324.572,457.706,503.509-37.571,515.649,216.3Z" transform="translate(3822.663 2008.24)" fill="#e2164b"/>
      <path id="Shape-17" data-name="Shape" d="M1905.332,729.635c-180.419,317.5-941.251,715.691-1654.8,555.451S574.4,1040.427,574.4,670.256,803.464,0,1155.169,0c151.251,0,290.17,55.448,399.408,148.149C1780.491,279.959,2016.694,533.664,1905.332,729.635Z" transform="translate(1813.398 1537.632)" fill="#ff612e"/>
      <path id="Shape-18" data-name="Shape" d="M904,948.528C497.268,1042.513-97.025,1008.184,13.454,725.4,196.152,257.78,638.239-54.93,1185.077,8.054c215.159,24.777,421.054,178.621,523.582,321.7C1944.46,658.81,1524.611,805.117,904,948.528Z" transform="translate(1692.383 1398.779)" fill="#ffcd00"/>
      <path id="Shape-19" data-name="Shape" d="M480.214,7.625c405.155,69.31,958.952,370.124,719.754,811.949-132.643,245.006-726.277,451.5-931.956,367.634C-72.92,1048.185-173.315-104.171,480.214,7.625Z" transform="translate(1987.376 1110.823)" fill="#b2cd0d"/>
      <path id="Shape-20" data-name="Shape" d="M1386.907,655.462C1369.77,1049.939,855.4,1650.805,463.841,1667.3s-512.047-557.64-494.91-952.116S145.689-6.136,537.255-22.626,1404.043,260.993,1386.907,655.462Z" transform="translate(2002.157 708.111) rotate(35.025)" fill="#0ab7e0"/>
      <path id="Shape-21" data-name="Shape" d="M1318.869,666.3c-18.164,401.465-437.175,1009.867-751.2,1024.165S-57.07,1261.387-38.906,859.926,331.457-15.092,645.482-29.39,1337.032,264.838,1318.869,666.3Z" transform="matrix(0.682, 0.731, -0.731, 0.682, 2019, 673.093)" fill="#2e39a9"/>
    </g>
  </g>
</svg>
