<svg xmlns="http://www.w3.org/2000/svg" width="25.721" height="32.113" viewBox="0 0 25.721 32.113">
  <g id="Group_7713" data-name="Group 7713" transform="translate(-0.593 -54)">
    <path id="Path_15092" data-name="Path 15092" d="M422.945,418.861c0,.913.013,18.305,0,19.218a2.334,2.334,0,0,1-.753,1.737,1.631,1.631,0,0,1-.822.433,1.721,1.721,0,0,1-.771-.031,1.869,1.869,0,0,1-.984-.7,2.3,2.3,0,0,1-.384-.795,3.054,3.054,0,0,1-.1-.847c0-1.6,0-24.683,0-26.285q0-.208,0-.416a2.533,2.533,0,0,1,.25-1.094,1.982,1.982,0,0,1,1.083-1.052A1.57,1.57,0,0,1,421.5,409a1.916,1.916,0,0,1,1.09.89,2.384,2.384,0,0,1,.308.838,3.866,3.866,0,0,1,.044.683c0,.817,0,6.634,0,7.451Z" transform="translate(-407.623 -354.925)" fill="#fff"/>
    <path id="Path_15094" data-name="Path 15094" d="M2.656,3.185c0,.589.009,11.814,0,12.4a1.459,1.459,0,0,1-.523,1.121,1.165,1.165,0,0,1-.571.279,1.285,1.285,0,0,1-.536-.02,1.3,1.3,0,0,1-.684-.451A1.441,1.441,0,0,1,.072,16,1.839,1.839,0,0,1,0,15.458c0-1.034,0-12.7,0-13.736q0-.134,0-.269A1.54,1.54,0,0,1,.176.747,1.338,1.338,0,0,1,.928.068,1.169,1.169,0,0,1,1.653.048a1.316,1.316,0,0,1,.758.575,1.472,1.472,0,0,1,.214.541,2.322,2.322,0,0,1,.031.441q0,.791,0,1.582Z" transform="translate(23.726 71.5) rotate(45)" fill="#fff" stroke="#fff" stroke-width="1"/>
    <path id="Path_15095" data-name="Path 15095" d="M2.655,13.822c0-.589.009-11.814,0-12.4A1.459,1.459,0,0,0,2.13.3,1.165,1.165,0,0,0,1.558.019a1.285,1.285,0,0,0-.536.02A1.3,1.3,0,0,0,.339.49,1.442,1.442,0,0,0,.072,1,1.839,1.839,0,0,0,0,1.549c0,1.034,0,12.7,0,13.736q0,.134,0,.269a1.54,1.54,0,0,0,.174.706,1.338,1.338,0,0,0,.753.679,1.169,1.169,0,0,0,.725.021,1.316,1.316,0,0,0,.758-.575,1.472,1.472,0,0,0,.214-.541,2.322,2.322,0,0,0,.031-.441q0-.791,0-1.582Z" transform="translate(15.206 83.526) rotate(135)" fill="#fff" stroke="#fff" stroke-width="1"/>
  </g>
</svg>
