<?xml version="1.0" encoding="UTF-8" standalone="no"?>
<svg
   xmlns:dc="http://purl.org/dc/elements/1.1/"
   xmlns:cc="http://creativecommons.org/ns#"
   xmlns:rdf="http://www.w3.org/1999/02/22-rdf-syntax-ns#"
   xmlns:svg="http://www.w3.org/2000/svg"
   xmlns="http://www.w3.org/2000/svg"
   xmlns:sodipodi="http://sodipodi.sourceforge.net/DTD/sodipodi-0.dtd"
   xmlns:inkscape="http://www.inkscape.org/namespaces/inkscape"
   width="117.726"
   height="97"
   viewBox="0 0 117.726 97"
   version="1.1"
   id="svg13"
   sodipodi:docname="blueicon2.svg"
   inkscape:version="0.92.3 (2405546, 2018-03-11)">
  <metadata
     id="metadata19">
    <rdf:RDF>
      <cc:Work
         rdf:about="">
        <dc:format>image/svg+xml</dc:format>
        <dc:type
           rdf:resource="http://purl.org/dc/dcmitype/StillImage" />
      </cc:Work>
    </rdf:RDF>
  </metadata>
  <defs
     id="defs17" />
  <sodipodi:namedview
     pagecolor="#ffffff"
     bordercolor="#666666"
     borderopacity="1"
     objecttolerance="10"
     gridtolerance="10"
     guidetolerance="10"
     inkscape:pageopacity="0"
     inkscape:pageshadow="2"
     inkscape:window-width="1366"
     inkscape:window-height="670"
     id="namedview15"
     showgrid="false"
     inkscape:zoom="2.4329897"
     inkscape:cx="58.862999"
     inkscape:cy="48.5"
     inkscape:window-x="0"
     inkscape:window-y="27"
     inkscape:window-maximized="1"
     inkscape:current-layer="svg13" />
  <g
     id="Group_3003"
     data-name="Group 3003"
     transform="matrix(1.0309278,0,0,1,10.269186,-0.037)">
    <circle
       id="Ellipse_97"
       data-name="Ellipse 97"
       cx="48.5"
       cy="48.5"
       r="48.5"
       transform="translate(0.188,0.037)"
       style="fill:#355376" />
    <g
       id="vuesax_bold_shield-tick"
       data-name="vuesax/bold/shield-tick"
       transform="translate(-281.292,-169.443)">
      <path
         id="Vector"
         d="M 37.187,5.522 23.543,0.392 a 8.6,8.6 0 0 0 -5.135,0 L 4.763,5.522 A 7.927,7.927 0 0 0 0,12.42 v 20.171 a 8.279,8.279 0 0 0 2.927,5.877 L 16.572,48.7 a 7.713,7.713 0 0 0 8.757,0 L 38.974,38.469 A 8.326,8.326 0 0 0 41.9,32.591 V 12.42 A 7.878,7.878 0 0 0 37.187,5.522 Z M 29.6,19.468 18.929,30.176 a 1.852,1.852 0 0 1 -2.63,0 L 12.33,26.142 a 1.8632297,1.8632297 0 1 1 2.63,-2.64 l 2.679,2.689 9.352,-9.391 a 1.867,1.867 0 0 1 2.63,0 1.892,1.892 0 0 1 -0.021,2.668 z"
         transform="translate(309.017,192.832)"
         inkscape:connector-curvature="0"
         style="fill:#ffffff" />
      <path
         id="Vector-2"
         data-name="Vector"
         d="M 0,0 H 59.96 V 59.96 H 0 Z"
         transform="rotate(180,179.98,123.98)"
         inkscape:connector-curvature="0"
         style="opacity:0;fill:none" />
    </g>
    <g
       id="Group_3056"
       data-name="Group 3056">
      <path
         id="Path_9938"
         data-name="Path 9938"
         d="m 142.046,102 a 5.0455,5.0455 0 1 0 0,10.091 28.6,28.6 0 0 1 28.57,28.571 5.046,5.046 0 0 0 10.091,0 A 38.662,38.662 0 0 0 142.046,102 Z m 33.616,41.314 a 2.656,2.656 0 0 1 -2.653,-2.653 31,31 0 0 0 -30.963,-30.961 2.653,2.653 0 1 1 0,-5.306 36.269,36.269 0 0 1 36.269,36.269 2.656,2.656 0 0 1 -2.653,2.651 z"
         transform="rotate(42,217.15396,-21.469828)"
         inkscape:connector-curvature="0"
         style="fill:#ffffff" />
      <path
         id="Path_9940"
         data-name="Path 9940"
         d="m 65.058,19.818 3.366,1.57 4.924,5.588 4.676,8.924 2.488,12.1 -1.312,10.64 -4.9,11.026 -5.868,5.773 -3.366,-1.275 -0.916,-4.5 4.282,-5.454 2.686,-5.572 1.45,-9.838 -1.459,-8.761 -3.623,-8.219 -4.442,-5.712 -1.37,-3.767 z"
         transform="translate(10)"
         inkscape:connector-curvature="0"
         style="fill:#ffffff" />
    </g>
    <g
       id="Group_3055"
       data-name="Group 3055">
      <path
         id="Path_9939"
         data-name="Path 9939"
         d="m 5.046,43.707 a 5.0455,5.0455 0 1 1 0,-10.091 28.6,28.6 0 0 0 28.57,-28.571 5.046,5.046 0 0 1 10.091,0 A 38.409,38.409 0 0 1 32.384,32.383 38.409,38.409 0 0 1 5.046,43.707 Z M 38.662,2.393 a 2.656,2.656 0 0 0 -2.653,2.653 31,31 0 0 1 -30.963,30.963 2.653,2.653 0 1 0 0,5.306 A 36.03,36.03 0 0 0 30.691,30.691 36.031,36.031 0 0 0 41.315,5.045 2.656,2.656 0 0 0 38.662,2.393 Z"
         transform="rotate(138,16.295304,34.441594)"
         inkscape:connector-curvature="0"
         style="fill:#ffffff" />
      <path
         id="Path_9941"
         data-name="Path 9941"
         d="m 77.128,19.818 -3.366,1.57 -4.924,5.588 -4.677,8.924 -2.487,12.1 1.316,10.64 4.9,11.026 5.868,5.773 3.366,-1.275 0.916,-4.5 -4.282,-5.454 -2.682,-5.57 -1.459,-9.84 1.459,-8.761 3.624,-8.221 4.442,-5.712 1.37,-3.767 z"
         transform="translate(-55)"
         inkscape:connector-curvature="0"
         style="fill:#ffffff" />
    </g>
  </g>
</svg>
