<svg xmlns="http://www.w3.org/2000/svg" width="117.726" height="97" viewBox="0 0 117.726 97">
  <g id="Group_3003" data-name="Group 3003" transform="translate(10.275 -0.037)">
    <circle id="Ellipse_97" data-name="Ellipse 97" cx="48.5" cy="48.5" r="48.5" transform="translate(0.188 0.037)" fill="#355376"/>
    <g id="vuesax_bold_shield-tick" data-name="vuesax/bold/shield-tick" transform="translate(-281.292 -169.443)">
      <path id="Vector" d="M37.187,5.522,23.543.392a8.6,8.6,0,0,0-5.135,0L4.763,5.522A7.927,7.927,0,0,0,0,12.42V32.591a8.279,8.279,0,0,0,2.927,5.877L16.572,48.7a7.713,7.713,0,0,0,8.757,0L38.974,38.469A8.326,8.326,0,0,0,41.9,32.591V12.42A7.878,7.878,0,0,0,37.187,5.522ZM29.6,19.468,18.929,30.176a1.852,1.852,0,0,1-2.63,0L12.33,26.142a1.863,1.863,0,1,1,2.63-2.64l2.679,2.689L26.991,16.8a1.867,1.867,0,0,1,2.63,0A1.892,1.892,0,0,1,29.6,19.468Z" transform="translate(309.017 192.832)" fill="#fff"/>
      <path id="Vector-2" data-name="Vector" d="M0,0H59.96V59.96H0Z" transform="translate(359.96 247.96) rotate(180)" fill="none" opacity="0"/>
    </g>
    <g id="Group_3056" data-name="Group 3056">
      <path id="Path_9938" data-name="Path 9938" d="M142.046,102a5.045,5.045,0,1,0,0,10.091,28.6,28.6,0,0,1,28.57,28.571,5.046,5.046,0,0,0,10.091,0A38.662,38.662,0,0,0,142.046,102Zm33.616,41.314a2.656,2.656,0,0,1-2.653-2.653A31,31,0,0,0,142.046,109.7a2.653,2.653,0,1,1,0-5.306,36.269,36.269,0,0,1,36.269,36.269A2.656,2.656,0,0,1,175.662,143.314Z" transform="translate(41.411 -150.819) rotate(42)" fill="#fff"/>
      <path id="Path_9940" data-name="Path 9940" d="M65.058,19.818l3.366,1.57,4.924,5.588L78.024,35.9,80.512,48,79.2,58.64l-4.9,11.026-5.868,5.773-3.366-1.275-.916-4.5,4.282-5.454,2.686-5.572L72.568,48.8l-1.459-8.761-3.623-8.219-4.442-5.712-1.37-3.767Z" transform="translate(10)" fill="#fff"/>
    </g>
    <g id="Group_3055" data-name="Group 3055">
      <path id="Path_9939" data-name="Path 9939" d="M5.046,43.707a5.045,5.045,0,1,1,0-10.091A28.6,28.6,0,0,0,33.616,5.045a5.046,5.046,0,0,1,10.091,0A38.409,38.409,0,0,1,32.384,32.383,38.409,38.409,0,0,1,5.046,43.707ZM38.662,2.393a2.656,2.656,0,0,0-2.653,2.653A31,31,0,0,1,5.046,36.009a2.653,2.653,0,1,0,0,5.306A36.03,36.03,0,0,0,30.691,30.691,36.031,36.031,0,0,0,41.315,5.045,2.656,2.656,0,0,0,38.662,2.393Z" transform="translate(51.451 49.133) rotate(138)" fill="#fff"/>
      <path id="Path_9941" data-name="Path 9941" d="M77.128,19.818l-3.366,1.57-4.924,5.588L64.161,35.9,61.674,48,62.99,58.64l4.9,11.026,5.868,5.773,3.366-1.275.916-4.5-4.282-5.454L71.076,58.64,69.617,48.8l1.459-8.761L74.7,31.818l4.442-5.712,1.37-3.767Z" transform="translate(-55)" fill="#fff"/>
    </g>
  </g>
</svg>
