<svg xmlns="http://www.w3.org/2000/svg" width="88.307" height="84.054" viewBox="0 0 88.307 84.054">
  <g id="interview" transform="translate(0.5 -12.13)">
    <g id="Group_2990" data-name="Group 2990" transform="translate(0 12.63)">
      <circle id="Ellipse_90" data-name="Ellipse 90" cx="1.828" cy="1.828" r="1.828" transform="translate(19.976 29.43)" fill="#007aff" stroke="#fff" stroke-width="1"/>
      <path id="Path_3926" data-name="Path 3926" d="M99.388,71.2a6.694,6.694,0,1,0-10.714-6.233,6.787,6.787,0,0,0-.064.932,1.275,1.275,0,1,0,2.549,0,4.222,4.222,0,0,1,.04-.58,4.145,4.145,0,1,1,6.632,3.863,9.52,9.52,0,0,0-3.8,7.549v.253a1.275,1.275,0,1,0,2.549,0v-.253A6.991,6.991,0,0,1,99.388,71.2Z" transform="translate(-73.499 -51.26)" fill="#007aff" stroke="#fff" stroke-width="1"/>
      <circle id="Ellipse_91" data-name="Ellipse 91" cx="1.828" cy="1.828" r="1.828" transform="translate(37.729 29.43)" fill="#007aff" stroke="#fff" stroke-width="1"/>
      <path id="Path_3927" data-name="Path 3927" d="M203.5,71.2a6.694,6.694,0,1,0-10.714-6.233,6.766,6.766,0,0,0-.064.932,1.275,1.275,0,1,0,2.549,0,4.2,4.2,0,0,1,.04-.58,4.145,4.145,0,1,1,6.632,3.863,9.52,9.52,0,0,0-3.8,7.549v.253a1.275,1.275,0,1,0,2.549,0v-.253A6.99,6.99,0,0,1,203.5,71.2Z" transform="translate(-159.857 -51.26)" fill="#007aff" stroke="#fff" stroke-width="1"/>
      <path id="Path_3928" data-name="Path 3928" d="M81.156,42.613H61.36V18.782a6.159,6.159,0,0,0-6.152-6.152H6.152A6.159,6.159,0,0,0,0,18.782v5.374a1.275,1.275,0,1,0,2.549,0V18.782a3.606,3.606,0,0,1,3.6-3.6H55.208a3.607,3.607,0,0,1,3.6,3.6v30a3.607,3.607,0,0,1-3.6,3.6H22.448A2.787,2.787,0,0,0,19.7,54.7c-.807,4.686-4.4,7.147-7.269,8.387a.224.224,0,0,1-.256-.045A.214.214,0,0,1,12.1,62.8a28.6,28.6,0,0,0,1.187-7.539,2.79,2.79,0,0,0-2.79-2.88H6.152a3.606,3.606,0,0,1-3.6-3.6V30.1A1.275,1.275,0,0,0,0,30.1V48.779a6.158,6.158,0,0,0,6.152,6.152H10.5a.239.239,0,0,1,.175.074.233.233,0,0,1,.067.173A26.6,26.6,0,0,1,9.678,62.02a2.831,2.831,0,0,0,3.761,3.411c3.449-1.489,7.77-4.485,8.771-10.295a.243.243,0,0,1,.238-.2h3.5V78.762A6.159,6.159,0,0,0,32.1,84.914H53.573a1.275,1.275,0,0,0,0-2.549H32.1a3.606,3.606,0,0,1-3.6-3.6V54.931H55.208a6.158,6.158,0,0,0,6.152-6.152V45.162h19.8a3.606,3.606,0,0,1,3.6,3.6v30a3.606,3.606,0,0,1-3.6,3.6H76.8a2.79,2.79,0,0,0-2.79,2.88A28.61,28.61,0,0,0,75.2,92.784a.214.214,0,0,1-.068.244.224.224,0,0,1-.256.045c-2.871-1.24-6.462-3.7-7.269-8.387a2.787,2.787,0,0,0-2.75-2.321H59.415a1.275,1.275,0,0,0,0,2.549h5.444a.243.243,0,0,1,.238.2c1,5.81,5.322,8.805,8.77,10.295a2.865,2.865,0,0,0,2.981-.5A2.753,2.753,0,0,0,77.629,92a26.606,26.606,0,0,1-1.066-6.842.233.233,0,0,1,.067-.173.238.238,0,0,1,.175-.074h4.351a6.158,6.158,0,0,0,6.151-6.152v-30a6.158,6.158,0,0,0-6.151-6.152Z" transform="translate(0 -12.63)" fill="#007aff" stroke="#fff" stroke-width="1"/>
      <circle id="Ellipse_92" data-name="Ellipse 92" cx="1.7" cy="1.7" r="1.7" transform="translate(38.486 49.434)" fill="#007aff" stroke="#fff" stroke-width="1"/>
      <circle id="Ellipse_93" data-name="Ellipse 93" cx="1.7" cy="1.7" r="1.7" transform="translate(49.447 49.434)" fill="#007aff" stroke="#fff" stroke-width="1"/>
      <circle id="Ellipse_94" data-name="Ellipse 94" cx="1.7" cy="1.7" r="1.7" transform="translate(60.409 49.434)" fill="#007aff" stroke="#fff" stroke-width="1"/>
      <circle id="Ellipse_95" data-name="Ellipse 95" cx="1.7" cy="1.7" r="1.7" transform="translate(71.37 49.434)" fill="#007aff" stroke="#fff" stroke-width="1"/>
    </g>
  </g>
</svg>
