<svg xmlns="http://www.w3.org/2000/svg" width="82.627" height="84" viewBox="0 0 82.627 84">
  <g id="deadline" transform="translate(0.465 0.5)">
    <path id="Path_3784" data-name="Path 3784" d="M355.562,350.086l-4.9,4.9-2.932-2.946A1.389,1.389,0,0,0,345.769,354l3.914,3.914a1.383,1.383,0,0,0,1.964,0l5.934-5.878a1.383,1.383,0,1,0-1.95-1.95Zm0,0" transform="translate(-285.623 -289.159)" fill="#be5ce9" stroke="#fff" stroke-width="1"/>
    <path id="Path_3785" data-name="Path 3785" d="M303.54,229.97v-4.288a1.383,1.383,0,0,0-1.383-1.383h-4.149v-1.383a4.15,4.15,0,0,1,4.149-4.149,1.383,1.383,0,1,0,0-2.766,6.916,6.916,0,0,0-6.916,6.916V224.3h-4.149a1.383,1.383,0,0,0-1.383,1.383v4.288a16.6,16.6,0,1,0,13.831,0Zm-5.533,28.907v-1.383a1.383,1.383,0,0,0-2.766,0v1.383a13.831,13.831,0,0,1-12.448-12.448h1.383a1.383,1.383,0,0,0,0-2.766h-1.383a13.831,13.831,0,0,1,8.728-11.494,1.384,1.384,0,0,0,.885-1.287v-3.817h8.3v3.817a1.382,1.382,0,0,0,.885,1.287,13.831,13.831,0,0,1,8.866,11.494h-1.383a1.383,1.383,0,0,0,0,2.766h1.383A13.83,13.83,0,0,1,298.008,258.877Zm0,0" transform="translate(-231.582 -178.655)" fill="#be5ce9" stroke="#fff" stroke-width="1"/>
    <path id="Path_3786" data-name="Path 3786" d="M44.586,71.923H6.951A4.15,4.15,0,0,1,2.8,67.773V23.513H74.724V49.046a1.383,1.383,0,1,0,2.766,0V13.831a6.916,6.916,0,0,0-6.916-6.916H67.809V5.533a1.383,1.383,0,1,0-2.766,0v5.533a2.766,2.766,0,1,1-5.533,0V5.533a2.766,2.766,0,0,1,2.766-2.766,1.383,1.383,0,0,0,0-2.766,5.533,5.533,0,0,0-5.533,5.533V6.916H44.3V5.533a1.383,1.383,0,1,0-2.766,0v5.533a2.766,2.766,0,0,1-5.533,0V5.533a2.766,2.766,0,0,1,2.766-2.766,1.383,1.383,0,0,0,0-2.766A5.533,5.533,0,0,0,33.23,5.533V6.916H20.782V5.533a1.383,1.383,0,0,0-2.766,0v5.533a2.766,2.766,0,1,1-5.533,0V5.533A2.766,2.766,0,0,1,15.25,2.766,1.383,1.383,0,0,0,15.25,0,5.533,5.533,0,0,0,9.717,5.533V6.916H6.951A6.916,6.916,0,0,0,.035,13.831V67.773a6.916,6.916,0,0,0,6.916,6.916H38.763c7.261,0,7.261,0,7.261-1.383a1.372,1.372,0,0,0-1.439-1.383ZM6.951,9.682H9.717v1.383a5.533,5.533,0,1,0,11.065,0V9.682H33.23v1.383a5.533,5.533,0,0,0,11.065,0V9.682H56.744v1.383a5.533,5.533,0,1,0,11.065,0V9.682h2.766a4.15,4.15,0,0,1,4.149,4.149v6.916H2.8V13.831A4.15,4.15,0,0,1,6.951,9.682Zm0,0" fill="#be5ce9" stroke="#fff" stroke-width="1"/>
    <path id="Path_3787" data-name="Path 3787" d="M77.866,161.383A1.383,1.383,0,0,0,76.483,160H65.418a1.383,1.383,0,0,0-1.383,1.383v11.065a1.383,1.383,0,0,0,1.383,1.383H76.483a1.383,1.383,0,0,0,1.383-1.383ZM75.1,171.065H66.8v-8.3h8.3Zm0,0" transform="translate(-52.935 -132.337)" fill="#be5ce9" stroke="#fff" stroke-width="1"/>
    <path id="Path_3788" data-name="Path 3788" d="M76.483,274.766a1.383,1.383,0,1,0,0-2.766H65.418a1.383,1.383,0,0,0-1.383,1.383v11.065a1.383,1.383,0,0,0,1.383,1.383H76.483a1.383,1.383,0,0,0,1.383-1.383v-5.533a1.383,1.383,0,1,0-2.766,0v4.149H66.8v-8.3Zm0,0" transform="translate(-52.935 -224.974)" fill="#be5ce9" stroke="#fff" stroke-width="1"/>
    <path id="Path_3789" data-name="Path 3789" d="M177.418,272a1.383,1.383,0,0,0-1.383,1.383v11.065a1.383,1.383,0,0,0,1.383,1.383h11.065a1.383,1.383,0,0,0,1.383-1.383V273.383A1.383,1.383,0,0,0,188.483,272Zm9.682,11.065h-8.3v-8.3h8.3Zm0,0" transform="translate(-145.571 -224.974)" fill="#be5ce9" stroke="#fff" stroke-width="1"/>
    <path id="Path_3790" data-name="Path 3790" d="M300.483,171.065a1.383,1.383,0,0,0,1.383-1.383v-8.3A1.383,1.383,0,0,0,300.483,160H289.418a1.383,1.383,0,0,0-1.383,1.383v11.065a1.383,1.383,0,1,0,2.766,0v-9.682h8.3v6.916A1.383,1.383,0,0,0,300.483,171.065Zm0,0" transform="translate(-238.207 -132.337)" fill="#be5ce9" stroke="#fff" stroke-width="1"/>
    <path id="Path_3791" data-name="Path 3791" d="M189.427,160.362a1.383,1.383,0,0,0-1.964,0l-4.551,4.564-4.551-4.564a1.389,1.389,0,0,0-1.964,1.964l4.564,4.551-4.564,4.551a1.389,1.389,0,1,0,1.964,1.964l4.551-4.564,4.551,4.564a1.389,1.389,0,1,0,1.964-1.964l-4.564-4.551,4.564-4.551a1.383,1.383,0,0,0,0-1.964Zm0,0" transform="translate(-145.532 -132.299)" fill="#be5ce9" stroke="#fff" stroke-width="1"/>
  </g>
</svg>
