<svg xmlns="http://www.w3.org/2000/svg" width="91.496" height="84.002" viewBox="0 0 91.496 84.002">
  <g id="elearning" transform="translate(0.5 -20.702)">
    <g id="Group_2983" data-name="Group 2983" transform="translate(0 21.204)">
      <path id="Path_3865" data-name="Path 3865" d="M312.913,64.759A43.487,43.487,0,0,0,303.5,63.38a1.326,1.326,0,0,0-.126,2.648,45.321,45.321,0,0,1,9.187,1.334,1.326,1.326,0,0,0,.352-2.6Z" transform="translate(-248.713 -55.924)" fill="#ff0089" stroke="#fff" stroke-width="1"/>
      <path id="Path_3866" data-name="Path 3866" d="M312.913,100.772a43.486,43.486,0,0,0-9.413-1.379,1.326,1.326,0,0,0-.126,2.648,45.323,45.323,0,0,1,9.187,1.334,1.326,1.326,0,0,0,.352-2.6Z" transform="translate(-248.713 -85.572)" fill="#ff0089" stroke="#fff" stroke-width="1"/>
      <path id="Path_3867" data-name="Path 3867" d="M312.913,140.456a43.487,43.487,0,0,0-9.413-1.379,1.326,1.326,0,0,0-.126,2.648,45.324,45.324,0,0,1,9.187,1.334,1.326,1.326,0,0,0,.352-2.6Z" transform="translate(-248.713 -118.242)" fill="#ff0089" stroke="#fff" stroke-width="1"/>
      <path id="Path_3868" data-name="Path 3868" d="M425.878,63.38a43.5,43.5,0,0,0-9.413,1.379,1.326,1.326,0,0,0,.352,2.6A45.934,45.934,0,0,1,426,66.029a1.326,1.326,0,1,0-.126-2.648Z" transform="translate(-342.054 -55.925)" fill="#ff0089" stroke="#fff" stroke-width="1"/>
      <path id="Path_3869" data-name="Path 3869" d="M425.878,99.394a43.486,43.486,0,0,0-9.413,1.379,1.326,1.326,0,0,0,.352,2.6A45.949,45.949,0,0,1,426,102.042a1.326,1.326,0,1,0-.126-2.648Z" transform="translate(-342.054 -85.573)" fill="#ff0089" stroke="#fff" stroke-width="1"/>
      <path id="Path_3870" data-name="Path 3870" d="M421.2,141.433a36.929,36.929,0,0,0-4.732.953,1.326,1.326,0,0,0,.352,2.6c.526,0,1.372-.464,4.744-.931a1.326,1.326,0,1,0-.364-2.626Z" transform="translate(-342.054 -120.173)" fill="#ff0089" stroke="#fff" stroke-width="1"/>
      <path id="Path_3871" data-name="Path 3871" d="M83.952,66.25a1.326,1.326,0,0,0-1.326,1.326v17.9H46.606V80.785a16.49,16.49,0,0,0-13.355-16.17l-.141-.027a4.141,4.141,0,0,0-.676-.949,9.7,9.7,0,0,0-3.365-2.252,11.931,11.931,0,0,0,1.368-1.038,9.829,9.829,0,0,0,3.2-6.074,2.991,2.991,0,0,0,2.356-2.937l-.008-3.551a3,3,0,0,0-.127-.844,2.953,2.953,0,0,0,.134-.878V40.686a4.092,4.092,0,0,0-.536-2.022h7.951a1.326,1.326,0,0,0,0-2.651H32.042a4.128,4.128,0,0,0-4.014-3.195H19.12a8.491,8.491,0,0,0-6.636,3.195H6.719A6.726,6.726,0,0,0,0,42.731V91.046a6.726,6.726,0,0,0,6.719,6.719H33.945l-.667,5.122H31.357a7.073,7.073,0,0,0-7.065,7.065,3.817,3.817,0,0,0,3.813,3.813H55.627a3.817,3.817,0,0,0,3.813-3.813,7.073,7.073,0,0,0-7.065-7.065H50.453l-.667-5.122H78.558a6.726,6.726,0,0,0,6.719-6.719V67.575a1.325,1.325,0,0,0-1.325-1.326Zm-54.426.205a3.284,3.284,0,0,0,.589-1.371c.135.119.27.246.4.384a1.522,1.522,0,0,1,.394,1.314l-.978,5.469a.7.7,0,0,1-.858.551l-3.541-.912ZM19.2,64.885a.628.628,0,0,1-.08-.6l.514-1.325a1.32,1.32,0,0,0,.087-.482,10.342,10.342,0,0,0,7.142.01,1.318,1.318,0,0,0,.087.471l.514,1.325a.627.627,0,0,1-.08.6L23.3,70.455Zm1.857,7-3.541.912a.7.7,0,0,1-.858-.551l-.978-5.469a1.521,1.521,0,0,1,.394-1.313c.131-.137.265-.265.4-.384a3.279,3.279,0,0,0,.589,1.371Zm11.96-20.2-.622,0a1.326,1.326,0,0,0-1.32,1.3,7.281,7.281,0,0,1-2.391,5.364,7.913,7.913,0,0,1-10.7.046,7.281,7.281,0,0,1-2.436-5.343,1.324,1.324,0,0,0-1.331-1.292l-.622,0h0a.306.306,0,0,1-.22-.093.345.345,0,0,1-.1-.243l-.005-2.34,1.1.384A2.276,2.276,0,0,0,17.4,47.326l0-3.349a1.6,1.6,0,0,1,1.579-1.627h.034a3.3,3.3,0,0,1,1.032.16,11.064,11.064,0,0,0,6.531,0,3.3,3.3,0,0,1,1.031-.16h.036a1.606,1.606,0,0,1,1.578,1.631l0,3.345a2.276,2.276,0,0,0,3.024,2.152l1.1-.383,0,2.25a.331.331,0,0,1-.319.342ZM13.267,41.321a5.859,5.859,0,0,1,5.853-5.853h8.908A1.475,1.475,0,0,1,29.5,36.942a2.274,2.274,0,0,0,2.271,2.271h.094a1.475,1.475,0,0,1,1.473,1.473v5.379a.312.312,0,0,1-.209.294l-1.268.442,0-2.812A4.259,4.259,0,0,0,27.648,39.7h-.061a5.974,5.974,0,0,0-1.829.287,8.469,8.469,0,0,1-4.909,0,5.944,5.944,0,0,0-1.855-.287h-.034a4.258,4.258,0,0,0-4.218,4.285l0,2.816-1.269-.442a.314.314,0,0,1-.209-.294ZM2.651,42.731a4.072,4.072,0,0,1,4.067-4.067h4.325a8.466,8.466,0,0,0-.428,2.658v4.744a2.954,2.954,0,0,0,.142.907,3,3,0,0,0-.142.921l.008,3.551a2.983,2.983,0,0,0,.873,2.106A2.943,2.943,0,0,0,13,54.363a9.83,9.83,0,0,0,3.248,6.046,11.986,11.986,0,0,0,1.289.971,9.7,9.7,0,0,0-3.382,2.259,4.134,4.134,0,0,0-.678.952,16.476,16.476,0,0,0-10.83,7.251Zm0,38.055A13.835,13.835,0,0,1,13.1,67.389l.953,5.328a3.348,3.348,0,0,0,4.128,2.652L23.3,74.052l5.116,1.317a3.349,3.349,0,0,0,4.128-2.652l.953-5.332a13.835,13.835,0,0,1,10.461,13.4v4.686h-5.5V79.7a1.326,1.326,0,0,0-2.651,0v5.775H10.807V79.7a1.326,1.326,0,0,0-2.651,0v5.775h-5.5Zm49.723,24.753a4.419,4.419,0,0,1,4.414,4.414,1.163,1.163,0,0,1-1.161,1.161H28.1a1.163,1.163,0,0,1-1.161-1.161,4.419,4.419,0,0,1,4.414-4.414Zm-16.423-2.651.667-5.122H47.113l.667,5.122ZM82.626,91.046a4.072,4.072,0,0,1-4.067,4.067H6.719a4.072,4.072,0,0,1-4.067-4.067V88.122H82.626Z" transform="translate(0 -30.764)" fill="#ff0089" stroke="#fff" stroke-width="1"/>
      <path id="Path_3872" data-name="Path 3872" d="M311.913,21.21c-3.521-.052-12.324.174-18.013,3.42a.362.362,0,0,1-.357,0c-5.689-3.248-14.494-3.474-18.017-3.422a3.026,3.026,0,0,0-2.967,3.014V49.9a3.014,3.014,0,0,0,3.06,3.014c3.046-.041,10.685.132,15.837,2.665A5.115,5.115,0,0,0,296,55.576c5.2-2.551,12.9-2.707,15.971-2.656a2.864,2.864,0,0,0,2.913-2.867V24.225A3.026,3.026,0,0,0,311.913,21.21ZM292.394,53.093c-4.835-2.295-11.483-2.9-16.812-2.827a.363.363,0,0,1-.371-.363V24.225a.364.364,0,0,1,.356-.363c3.305-.049,11.543.15,16.663,3.074.054.031.109.06.165.087Zm19.835-3.04a.214.214,0,0,1-.217.216c-9.444-.159-14.884,1.842-16.967,2.823V27.022q.085-.042.169-.089c5.121-2.921,13.357-3.12,16.659-3.072a.364.364,0,0,1,.356.363V50.053Z" transform="translate(-224.384 -21.204)" fill="#ff0089" stroke="#fff" stroke-width="1"/>
    </g>
  </g>
</svg>
