<svg xmlns="http://www.w3.org/2000/svg" width="98" height="96" viewBox="0 0 98 96">
  <g id="Group_3003" data-name="Group 3003" transform="translate(0 0.077)">
    <ellipse id="Ellipse_97" data-name="Ellipse 97" cx="49" cy="48" rx="49" ry="48" transform="translate(0 -0.077)" fill="#496a58"/>
    <g id="vuesax_bold_speedometer" data-name="vuesax/bold/speedometer" transform="translate(13.639 17.432)">
      <g id="speedometer" transform="translate(0 0)">
        <path id="Vector" d="M0,0H59.735V58.959H0Z" transform="translate(0 1.056)" fill="none" opacity="0"/>
        <path id="Vector-2" data-name="Vector" d="M44.528,45.448a1.942,1.942,0,0,1-1.319-.516,1.815,1.815,0,0,1-.025-2.6,22.422,22.422,0,0,0,6.6-15.919,23.025,23.025,0,0,0-46.046,0,22.407,22.407,0,0,0,6.546,15.87,1.836,1.836,0,0,1-.025,2.6,1.9,1.9,0,0,1-2.638-.025A26.131,26.131,0,0,1,0,26.409,26.607,26.607,0,0,1,26.756,0,26.607,26.607,0,0,1,53.513,26.409a26.041,26.041,0,0,1-7.666,18.5A1.818,1.818,0,0,1,44.528,45.448Z" transform="translate(3.111 5.356)" fill="#fff"/>
        <path id="Vector-3" data-name="Vector" d="M19.314,9.532a9.6,9.6,0,0,1-9.657,9.532A9.6,9.6,0,0,1,0,9.532,9.6,9.6,0,0,1,9.657,0,9.6,9.6,0,0,1,19.314,9.532Z" transform="translate(20.21 36.039)" fill="#fff"/>
        <path id="Vector-4" data-name="Vector" d="M4.918-.016a4.921,4.921,0,0,1,4.9,4.958L9.813,6.807A3.117,3.117,0,0,1,6.73,9.925l-1.844.006a4.921,4.921,0,0,1-4.9-4.958A5,5,0,0,1,4.918-.016Z" transform="matrix(0.259, 0.966, -0.966, 0.259, 43.344, 20.834)" fill="#fff"/>
        <path id="Vector-5" data-name="Vector" d="M13.07,6.739a1.13,1.13,0,0,0-1.587,0L7.813,10.408V1.123a1.123,1.123,0,1,0-2.246,0v9.27L1.913,6.739A1.122,1.122,0,0,0,.326,8.326l5.556,5.556a1.171,1.171,0,0,0,.389.255.055.055,0,0,1,.045.015A1.1,1.1,0,0,0,7.5,13.9L13.07,8.326A1.13,1.13,0,0,0,13.07,6.739Z" transform="translate(68.335 14.227) rotate(180)" fill="#fff"/>
      </g>
    </g>
  </g>
</svg>
