<svg xmlns="http://www.w3.org/2000/svg" xmlns:xlink="http://www.w3.org/1999/xlink" width="1920" height="1080" viewBox="0 0 1920 1080">
  <defs>
    <clipPath id="clip-path">
      <rect id="Background" width="1920" height="1080" transform="translate(5363 -4687)" fill="#fff"/>
    </clipPath>
  </defs>
  <g id="Mask_Group_6" data-name="Mask Group 6" transform="translate(-5363 4687)" opacity="0.03" clip-path="url(#clip-path)" style="mix-blend-mode: luminosity;isolation: isolate">
    <g id="Patterns" transform="translate(5073.298 -5155.236)">
      <g id="Clarence" transform="translate(0)">
        <g id="Shape" transform="translate(0)">
          <path id="Path_49" data-name="Path 49" d="M35.282,456.955c57.067,152.284,101.482,309.88,146.585,466.021,48.091,166.418,48.226,341.51,66.335,511.549C259.05,1537,280.316,1635.743,348.128,1717.2c47.482,56.977,104.425,95.352,175.09,117.5,98.449,30.852,205.546,31.483,302.055,67.5,22.337,8.336,44.934,19.571,59.762,38.94,12.3,16.108,18.165,36.345,26.318,54.224,7.262,15.916,19.507,22.256,35.034,23.937,47.358,5.11,108.191-23.384,157.353-32.07,10.385-1.839,23.679-3.79,32.812-9.261,6.517-3.914,6.326-9.475,5.976-14.315-2.718-37.574-1.015-77-10.43-114.021-10.791-42.436-37.717-71.787-74.544-90.242-63.144-31.585-144.589-33.931-216.325-46.452-70.8-12.408-142.075-25.945-209.943-50.253-57.45-20.542-111.292-49.633-156.553-90.919C418.038,1520,387.413,1448.49,368.594,1376.3c-46.231-177.574-42.4-367.883-86.53-548.074-21.954-89.656-49.771-178.578-77.205-266.688-23.487-75.454-48.553-151.562-82.414-222.424-9.528-19.955-21.153-46.813-42.363-57.529-10.295-5.2-20.68-4.253-30.614-2.38-14.749,2.786-29.565,9.385-38.416,21.827-29.317,41.15,7.059,115.408,24.232,155.871" transform="translate(0 252.772)" fill="#137d9f"/>
          <path id="Path_50" data-name="Path 50" d="M99.68,379.932c34.993,80.948,62.445,164.886,88.306,249.016,16.988,55.282,33.311,110.823,49.723,166.3,25.048,84.615,40.129,171.306,52.4,258.5,13.32,94.633,24.066,190.576,43.143,283.8,21.65,105.791,56.44,206.72,143.018,277.718,68.857,56.41,153.257,87.447,238.6,109.119,53.053,13.46,106.852,23.444,160.684,32.921,50.209,8.845,102.72,13.448,150.13,33.417,63.766,26.863,93.972,79.572,125.014,137.054,11.5,21.3,30.478,35.99,51.157,46.888,49.565,26.129,107.676,37.806,163.675,47.035,7.315,1.207,14.9,2.392,22.745,3.283a303.578,303.578,0,0,0,47.059,1.625c1.129,0,2.257-.079,3.386-.158,11.017-.823,24.089-1.5,33.8-7.762,5.734-3.7,5.554-9.747,4.515-15.716-20.239-112.459-48.121-230.153-146.879-296.333-58.7-39.352-132.2-44.654-201.445-55.53-79.445-12.41-159.16-25.193-237.442-42.161-96.061-20.815-195.056-46.99-281.07-96.958C520.134,1459.654,471.867,1380.725,439,1285.1c-42.1-122.489-60.075-253.27-84.773-381.016-24.608-127.295-62.242-250.6-100.914-373.987-23.253-74.179-47.488-149.645-81.183-218.668-9.821-20.116-21.187-40.1-37.86-55.823-12.01-11.384-26.933-22.665-43.244-26.524-10.408-2.426-25.737.891-32.374,10.064-12.5,17.239-1.264,43.831,5.4,61.261,10.362,27.077,23.31,53.307,35.67,79.527" transform="translate(48.251 207.81)" fill="#0abbab"/>
          <path id="Path_51" data-name="Path 51" d="M144.4,316.533c35.84,72.317,62.4,148.569,86.933,225.182,16.922,52.992,33.031,106.446,49.344,159.663,26.409,86.174,44.267,174.467,61.877,262.783,19.246,96.445,39.563,193.375,69.334,286.641,17.52,54.864,38.819,109.626,69.278,159.111,31.114,50.522,77.727,86.918,129.237,115.094,104.915,57.367,225.24,85.08,341.572,108.239,62.328,12.4,125.041,22.73,187.775,32.821,58.5,9.415,119.039,14.657,172.918,41.2,85.455,41.988,134.618,123.584,180.07,203.342,15.41,27.06,35.626,50.3,58.3,70.964,49.75,45.337,102.4,81.326,166.465,104.5a195.462,195.462,0,0,0,24.548,7.61c14.553,3.134,29.884,5.254,44.911,2.255.88-.169,1.737-.384,2.561-.6,10.932-2.9,15.794-8.7,18.332-17.047,1.636-5.367-.35-12.617-3.181-20.1-51.893-137.283-102.884-292.639-224.258-381.8-62.656-46.024-137.946-52.406-213.756-63.331-94.13-13.53-188.486-27.139-281.8-44.31-119.423-21.963-242.737-47.264-353.8-98.757-53.022-24.6-103.178-58.437-138.172-106.085-29.952-40.8-52.672-87.764-71.929-134.069-49.57-119.243-79.577-246.153-111.5-371.653C378.9,738.01,340.757,620.729,301.555,503.312,279.579,437.5,257.276,370.393,226.2,309.385c-9.6-18.863-21.073-37.06-35.366-53.172-17.486-19.708-37.329-42.179-60.648-52.665-9.42-4.228-24.288-10.6-33.843-4.9-22,13.068,38.661,100.256,48.08,118" transform="translate(83.343 178.75)" fill="#b2cd0d"/>
          <path id="Path_52" data-name="Path 52" d="M191.253,283.344c37.579,65.006,64.648,134.8,89.29,205.366,18.061,51.658,35.14,104.06,52.186,156.022,28.559,87.044,49.149,177.044,72.347,265.69,26.177,100.054,57.051,199.623,97.079,294.724,22.4,53.17,47.761,106.689,81.795,153.934,39.159,54.343,95.318,90.993,156.151,117.07,128.686,55.144,270.67,80.274,407.992,103.169,72.11,12.017,144.49,22.41,216.837,32.723,55.854,7.966,115.874,10.911,168.444,32.8,103.57,43.138,167.857,144.434,222.515,236.758,17.226,29.124,36.032,57.3,55.933,84.742,37.635,51.906,77.483,118.244,136.825,147.266,5.644,2.787,11.683,5.563,17.44,6.77,12.18,2.652,21.448-1.726,26.087-8.824a19.262,19.262,0,0,0,1.129-1.783c4.583-8.971,2.811-23.211.959-32.43a109.939,109.939,0,0,0-8.252-23.7c-70.845-151.2-159.752-316.005-298.01-411.038-61.871-42.518-130.944-50.078-205.379-59.748-94.235-12.243-188.932-22.263-282.828-35.51-120.525-17-245.543-36.221-358.5-84.347-110.049-46.9-176.007-132.563-219.32-240.279C575.438,1107,551.259,983.1,519.6,862.162c-30.444-116-74.209-226.479-117.748-337.851-24.18-61.836-49.194-124.788-82.292-181.275a297.965,297.965,0,0,0-38.606-51.477c-27.385-29.62-57.39-58.53-91.83-79.687-14.562-8.948-30.727-18.946-47.253-23.369-19.19-5.134,4.019,27.183,6.852,31.414,14.167,21.157,29.2,41.683,42.489,63.427" transform="translate(122.273 171.073)" fill="#eae9f9"/>
          <path id="Path_53" data-name="Path 53" d="M262.556,290.582c45.828,61.127,82.415,127.589,113.058,197.018,21.977,49.824,40.356,102.186,59.93,152.552,32.91,84.6,49.133,176.635,68.268,266.12,21.56,100.844,44.891,203.143,81.761,298.922,20.5,53.208,44,105.085,82.731,148.378,42.172,47.128,95.424,79.231,154.293,101.272,121.169,45.278,253.361,59.942,381.153,73.93,66.982,7.366,134.087,13.638,201.058,21.116,56.41,6.306,117.988,8.663,171.724,28.2,106.333,38.6,190.4,132.97,261.9,216.442,24.132,28.2,48.942,55.915,73.683,83.473,58.8,65.424,113.509,153.7,201.768,182.083,9.026,2.91,18.706,5.459,28.341,5.563,16.562.156,36.824-6.85,45.873-22.044a28.805,28.805,0,0,0,1.669-3.125c7.209-16.311.181-33.964-5.539-49.632-3.486-9.543-9.691-19.357-15.682-27.523-65.594-89.507-146.892-171.355-231.147-244.9-88.812-77.618-184.563-150.815-287.941-205.9-35.245-18.759-72.521-36.491-111.692-46.508-36.475-9.317-75.816-10.829-113.261-13.3-85.665-5.64-171.769-5.911-257.378-9.024-107.868-3.847-221.128-8.471-323.931-45.12-51.548-18.375-99.09-48.109-135.486-89.3-33.654-38.1-49.156-88.65-58.306-137.538-21.391-114.1-12.331-232.46-18.74-348.419-3.193-57.833-9.578-115.959-24.967-171.931-14.148-51.471-38.111-99.569-62.209-146.72-30.461-59.649-64.545-118.982-106.142-170.476a306.358,306.358,0,0,0-47.159-46.485c-39.318-31.4-81.919-61.668-129.428-79.333-17.171-6.385-36.227-11.6-53.8-13.592-25.509-2.91-2.482,26.531,3.182,33.615,16.923,21.173,35.595,40.89,52.416,62.153" transform="translate(177.653 177.105)" fill="#fe9572"/>
          <path id="Path_54" data-name="Path 54" d="M352.1,285.835c60.731,56.147,114.861,118.171,157.651,188.135,28.1,45.94,55.292,96.481,69.623,147.835,24.238,86.849,18.055,182.721,15.8,273.924-2.494,100.564-6.1,202.787,10.494,300.61,8.96,52.8,28.684,101.512,69.285,139.049,38.118,35.27,84.259,58.944,133.977,73.1,104.649,29.777,217.31,27.217,325.085,26.01,57.9-.654,115.809-1.94,173.708-.925,52.11.914,107.674.654,158.542,13.2,141.661,34.965,273.37,126.529,391.56,207.908,41.684,28.705,83.83,57.241,125.141,86.387,66.576,46.955,129.767,99.087,195.972,146.91,57.221,41.349,119.33,78.491,189,92.793,15.042,3.09,31.3,5.753,46.061,4.139,20.707-2.255,51.411-9.824,54.841-35.958a24.85,24.85,0,0,0,.214-4.512c-1.128-25.8-25.864-49.12-42.4-66.174a412.057,412.057,0,0,0-33.164-30.217c-118.923-98.647-254.22-181.943-389.145-259.419-137.915-79.066-280.535-153.723-427.917-211.224-82.081-32.021-160.743-53.846-249.65-53.012-74.746.733-149.267,9.937-223.426,16.919-91.932,8.662-189.969,18.148-280.072-8.561-47.867-14.189-92.462-41.541-125.976-78.694-33.852-37.447-43.523-89-43.117-136.8.959-113.6,41.007-227.838,61.645-341.418C725.621,722,732.9,666.843,728.848,612.038c-3.938-53.237-23.11-98.861-46.953-145.5-32.419-63.479-70.785-125.367-117.039-178.695a325.64,325.64,0,0,0-52.291-48.263c-50.779-37.582-109.2-70.889-174.182-76.235-20.526-1.692-44.572-.778-63.315,8.313-53.058,25.728,58.023,97.35,77.037,114.178" transform="translate(237.419 148.044)" fill="#f75f68"/>
          <path id="Path_55" data-name="Path 55" d="M441.134,233.864c70.44,60.737,136.139,126.967,185.8,204.692,29.955,46.895,60.293,100.648,68.656,155.09,14.357,93.395-15.9,194.6-39.142,287.54-25.068,100.231-62.55,209.825-51.918,310.9,5.237,50.008,24.831,90.428,66.038,123.041a273.621,273.621,0,0,0,124.954,55.04c88.035,14.755,179.649-2.606,266.623-16.922,91.23-14.958,185.732-33.143,278.5-22.787,65.767,7.333,130.383,33.29,191.579,57.115,92.234,35.918,182.369,77.41,271.172,120.706,56.7,27.627,113.532,55.717,169.513,84.8,111.3,57.815,219.908,121.315,330.054,181.691,81.343,44.594,167.663,93.124,258.893,112.347,12.664,2.662,26.681,4.6,39.345,2.042,26.771-5.426,16.038-40.014,8.273-54.363a61.574,61.574,0,0,0-3.837-5.967c-23.4-33.268-59.345-58.661-92.46-80.963-15.44-10.424-31.67-20.531-47.708-30.335-152.369-93.158-312.8-175.61-474.466-252.851-149.4-71.386-301.747-140.639-458.236-193.84-77.528-26.352-150.3-46.681-232.809-40.476-67.46,5.076-133.871,20.2-199.965,33.3-82.708,16.391-171.342,34.046-255.337,15.15-45.259-10.153-88.893-34.012-121.5-67.1-36.23-36.753-45.8-86.705-43.668-134.965,5.034-113.5,55.767-227.333,90.53-338.609,17.223-55.085,33.51-111.625,38.375-169.372,4.289-50.448-4.6-93.7-26.5-138.372A694.893,694.893,0,0,0,665.207,261.276a560.488,560.488,0,0,0-52.821-49.016c-59.537-48.88-129.9-91.906-205.755-110.655-19.131-4.715-44.808-8.923-63.205.056-57.088,27.864,78.792,116.374,97.719,132.2" transform="translate(299.926 87.73)" fill="#7158d1"/>
          <path id="Path_56" data-name="Path 56" d="M867.931,69.46c67.508,45.5,87.395,109.877,100.3,186.452,15.81,93.536,39.333,185.2,80.6,270.141,27.1,55.887,62.957,125.957,116.056,162.613,61.354,42.347,152.385,21.524,217.161,2.868,96.339-27.746,196.246-71.437,283.145-124.32,34.116-20.756,53.471-31.913,86.83-7.679,4.732,3.388,10.74,8.232,17.244,4.833,5-2.609,9.034-9.52,12.953-15.979a318.892,318.892,0,0,1,28.8-40.653c9.678-11.5,21.863-26.029,21.863-42.042,0-10.513-5.138-17.91-9.486-23.432-7.566-9.633-24.178-38.293-40.022-31.823-13.393,5.477-25.7,17.063-38.4,25.465-33.359,22.145-69,41.534-104.391,59.32-118.9,59.772-290.79,131.852-411.16,35.764-84.256-67.281-140.358-156.188-160.076-260.858-13.2-70.116-21.535-140.028-58.892-202.137C996.465,44.74,977.708,25.814,954.6,12.952,931.024-.148,895.688-5.7,870.381,7.768,848.394,19.513,848.507,54.994,867.931,69.46Z" transform="translate(776.957)" fill="#0abbab"/>
          <path id="Path_57" data-name="Path 57" d="M805.2,48.212c-16.927.316-28.1,17.638-22.343,32.524a20.548,20.548,0,0,0,4.954,7.161c37.363,33.922,68.395,77.476,84.52,124.987,7.1,20.942,12.83,42.583,18.2,64.18,10.156,40.79,20.639,81.818,30.073,122.766,10.483,45.482,20.312,91.527,31.6,136.772,4.965,19.814,10.258,39.787,15.8,59.421,17.344,60.9,38.672,121.356,67.368,177.45,21.158,41.377,46.334,77.047,95.139,86.836,49.245,9.868,103.569-1.568,150.7-13.42,130.448-32.828,258.188-93.411,383.152-146.336,22.219-9.405,47.891-23.107,70.877-20.841,19.184,1.895,37.239,11.785,55.61,21.01,3.859,1.928,8.1,3.913,12.21,4.364a9.9,9.9,0,0,0,8.26-2.56c3.837-3.62,5.823-11.379,7.38-19.081,2.517-12.405,4.9-24.912,7.222-37.373.824-4.364,1.625-8.672,2.471-12.89,3.182-15.924,5.71-33.719.745-49.621a62.843,62.843,0,0,0-15.042-24.81c-13.609-14.57-34.045-39.775-57.551-34.779-17.66,3.755-34.474,13.341-50.859,21.168-36.821,17.57-74.229,34.2-111.276,51.109-44.122,20.141-89,39.73-134.285,56.286-69.061,25.216-152.464,53.883-227.584,40.6C1166.862,681.46,1124,622.457,1091.065,570.513c-43.434-68.488-68.688-146.065-86.484-225.728-8.249-36.888-14.207-74.859-22.648-111.443-7.323-31.757-17.062-63.368-31.822-91.787A179.093,179.093,0,0,0,903.98,84.717C877.845,63.346,839.332,47.569,805.2,48.212Z" transform="translate(711.16 43.865)" fill="#ffd300"/>
          <path id="Path_58" data-name="Path 58" d="M735.954,76.825c-11.612-1.128-32.452-.1-32.339,17.129a11.133,11.133,0,0,0,1.966,5.74c26.725,44.644,63.706,81.688,84.625,129.681,9.635,22.114,18.073,45.107,25.9,67.976,14.684,43.269,28.7,87.744,41.161,131.407,13.961,48.918,23.935,99.967,34.417,150.261,4.789,22.925,9.556,45.907,14.5,68.788,15.125,69.814,32.135,139.83,56.138,206.735,16.683,46.5,34.18,103.621,76.572,134.113,43.86,31.575,102.913,24.56,152.489,16.791C1360.536,978.889,1518.842,899.2,1686.048,859.8c33.152-7.8,70.653-19.069,103.749-10.713,27.2,6.879,53.168,22.294,79.283,33.221,5.015,2.1,10.493,3.913,15.542,4.184,3.558.192,6.845-.665,9.217-3.575,3.23-3.947,4.2-11.908,4.224-20.072,0-13.611-.757-27.323-2.033-40.945-.44-4.759-1.017-9.495-1.547-14.085-1.977-17.253-5.185-35.5-13.013-51a94.632,94.632,0,0,0-19.778-25.654c-22.026-20.073-45.871-42.13-77.939-40.6-22.591,1.128-44.5,9.258-65.785,16.069-41.985,13.431-83.315,27.989-124.25,44.193-48.491,19.17-97.141,39.378-146,57.274-77.577,28.395-166.043,60.5-250.386,57.432-85.021-3.09-119.461-72.17-151.732-139.774-44.5-93.258-70.743-194.612-93.21-296.068-9.443-42.626-19.541-85.285-30.351-127.426-8.562-33.39-18.152-67.073-32.158-97.859a227.68,227.68,0,0,0-41.1-61.492C820.026,112.178,776.561,80.626,735.954,76.825Z" transform="translate(640.427 69.636)" fill="#fe9572"/>
          <path id="Path_59" data-name="Path 59" d="M668.771,97.044c-14.821-6.03-35.624-14.111-51.235-8.284a3.44,3.44,0,0,0-2.337,2.525c-2.258,17.921,23.7,40.631,34.2,53.322,20.013,24.108,40.783,48.127,57.568,74.388C721.643,241.931,735.5,265.882,748.045,290a1019.748,1019.748,0,0,1,61.507,145.721c17.056,51.012,30.06,100.311,36.234,153.983,2.709,23.579,4.7,47.563,6.491,71.345,5.407,71.423,8.725,144.075,22.237,213.876,10.159,52.421,24.607,110.376,53.448,156.665,30.68,49.254,81.272,75.177,135.849,81.15,197.819,21.753,399.375-93.9,597.454-114.433,66.406-6.887,131.357,8.633,192.029,35.007,58.99,25.63,115.373,64.717,176.237,86.853,7.145,2.592,13.376,4.046,17.542,3.077,2.912-.687,4.572-2.942,3.962-8.216-.711-6.188-4.718-16.467-9.414-27.185-7.642-17.447-15.8-34.872-24.1-52q-4.267-8.774-8.375-16.906c-9.324-18.743-18.761-38.434-31.223-54.743a186.63,186.63,0,0,0-26.21-28.369c-30.861-26.565-64.341-52.86-106.433-56.805-70.572-6.616-152.758,17.244-218.849,36.292-52.116,15.024-104.243,32.55-156.292,48.465-86.566,26.385-178.348,53.931-269.847,55.295-41.528.62-81.182-8.51-111.355-38.614-29.055-28.989-44.564-70.285-60.006-107.163C982.8,763.118,953.992,646.262,924.779,530.15c-12.417-49.5-27.982-98.237-42.431-147.209-10.881-36.957-22.169-74.286-37.182-109.226a329.574,329.574,0,0,0-40.049-69.181C770.113,158.3,721.9,118.662,668.771,97.044Z" transform="translate(559.826 78.957)" fill="#eae9f9"/>
          <path id="Path_60" data-name="Path 60" d="M588.049,95.206C567.938,84.561,545.04,73.521,521.7,70.758a32.972,32.972,0,0,0-6.568-.192c-21.995.9,22.277,40.6,26.295,44.363,25.392,23.929,52.375,46.551,76.164,71.845,20.844,22.17,41.157,45.468,59.891,69.353C713.123,301.6,744.6,351.146,768.9,403.471s32.389,102.022,28.969,159.342c-1.467,24.7-4.683,49.945-8.453,74.6-11.534,75.205-30.132,150.873-38.72,226.259-6.207,54.354-6.241,109.137,4.006,163.582,11.466,61,41.169,108.258,93.589,137.431,103.283,57.377,237.8,30.831,351.886,5.4,104.953-23.377,218.934-66.793,327.69-59.2,132.658,9.258,266.254,74.619,383.282,132.1,69.145,33.955,137.4,70.672,205.652,106.859,53.7,28.485,108,60.365,164.122,81.5,9.954,3.755,21.137,8.333,31.994,8.5,5.079.077,8.329-2.156,7.1-8.2-2.031-9.98-8.441-19.836-13.542-28.666-11.816-20.366-25.764-40.123-40.085-59.079q-7.685-10.149-15.235-19.52c-17.3-21.505-35.639-42.661-55.918-61.121a550.466,550.466,0,0,0-48.877-39.469c-79.075-56.881-164.765-105.935-255.318-139.912-49.125-18.449-101.138-33.594-154.224-37.654-47.714-3.642-96.7,4.24-142.917,13.769-52.25,10.781-104.479,25.452-156.425,38.928-87.337,22.678-177.055,44.916-268.036,44.4-43.279-.248-87.258-8.74-123.28-33.83-38.776-27.065-60.128-65.7-75.871-108.01C925.444,880.877,916.4,750.8,903.777,621.509c-6.128-62.666-17.187-121.147-38.065-180.351-14.671-41.51-31.5-83-51.98-121.632a543.078,543.078,0,0,0-49.147-76.119C717.378,182.038,655.546,130.92,588.049,95.206Z" transform="translate(463.323 64.154)" fill="#1daacc"/>
          <path id="Path_61" data-name="Path 61" d="M758.629,553.544c-8.76,104.879-54.481,208.36-88.2,309.191-33.054,98.846-74.18,228.524-16.358,318.776,49.751,77.645,163.838,97.256,254.624,91.482,93.6-5.965,184.7-31.791,276.141-50.849,42.582-8.875,85.582-16.781,129.045-19.645,49.175-3.225,94.139,4.511,141.327,18.247,174.065,50.748,340.928,132.1,502.192,213,124.258,62.353,246.992,128.674,370.279,193.5,47.154,24.81,94.354,49.62,142.478,72.547,28.81,13.7,59.482,29.738,91.091,35.2,8,1.387,14.5.53,15.071-4.511,2.867-25.1-28.731-59.262-45.247-78.344-27.884-32.219-62.541-59.138-97.333-84.118-210.348-151.049-451.956-273.182-695.968-363.4-76.539-28.295-162.923-62.623-245.942-61.191-69.168,1.2-137.557,17.8-204.636,33.212-145.628,33.471-406.833,95.124-466.5-88.189-31.745-97.549-17.2-210.514-1.908-314.638,14.371-97.944,43.384-206.59,24.328-304.093-15.172-77.645-66.752-154.116-117.857-213.875C666.127,186.715,589.588,131.9,507.246,93.372c-23.007-10.759-49.344-22-75.23-22.848-44.027-1.443-8.072,34.52,6.773,47.173,29.047,24.742,62.09,44.76,91.441,68.792,72.588,59.409,139.882,126.96,186.833,207.785C746.979,445.812,763.619,493.8,758.629,553.544Z" transform="translate(373.948 64.152)" fill="#eae9f9"/>
        </g>
      </g>
    </g>
  </g>
</svg>
