<svg xmlns="http://www.w3.org/2000/svg" width="389.695" height="436.78" viewBox="0 0 389.695 436.78">
  <g id="Group_9517" data-name="Group 9517" transform="translate(-16.08 -8049.698)">
    <path id="Shape" d="M-3,279.7C-5.908,232.113,32.356,41.155,161.125.187c229.493-87.711,219.92,271.1,209.3,345.966S195.713,447.491,109.906,398.076-.083,327.281-3,279.7Z" transform="translate(19.228 8063.225)" fill="#fff"/>
    <g id="Group_7104" data-name="Group 7104" transform="translate(42.78 8088.326)">
      <g id="Plant" transform="translate(296.441 187.876)">
        <g id="Group_6881" data-name="Group 6881" transform="translate(0)">
          <g id="Group_6856" data-name="Group 6856" transform="translate(0)">
            <g id="Group_6837" data-name="Group 6837" transform="translate(0 53.031)">
              <g id="Group_6836" data-name="Group 6836" transform="translate(0)">
                <g id="Group_6835" data-name="Group 6835">
                  <path id="Path_14304" data-name="Path 14304" d="M89.395,342.265a21.62,21.62,0,0,0-13.411-1.63c-2.433.4-4.969,1.13-6.625,2.958s-1.97,5.043-.069,6.614a6.346,6.346,0,0,0,4.177,1.059c3.545-.041,7.479-.665,10.311,1.468,1.617,1.217,2.691,3.24,4.624,3.839a4.568,4.568,0,0,0,5.025-2.236,7.8,7.8,0,0,0,.568-5.76A8.8,8.8,0,0,0,89.395,342.265Z" transform="translate(-67.987 -340.257)" fill="none" stroke="rgba(112,112,112,0.08)" stroke-width="0.5"/>
                </g>
              </g>
            </g>
            <g id="Group_6840" data-name="Group 6840" transform="translate(14.094)">
              <g id="Group_6839" data-name="Group 6839" transform="translate(0)">
                <g id="Group_6838" data-name="Group 6838">
                  <path id="Path_14305" data-name="Path 14305" d="M75.91,309.22c-2.494,3.562-7.342,2.383-9.59.208s-3.2-5.326-4.063-8.332c-1.976-6.866-3.968-14.07-2.5-21.063a11.7,11.7,0,0,1,2.69-5.727,6.112,6.112,0,0,1,5.794-1.928c2.444.645,3.963,3.039,5.061,5.317a50.217,50.217,0,0,1,4.962,21.547c.012,3.471-.4,7.111-2.356,9.976" transform="translate(-59.251 -272.221)" fill="none" stroke="rgba(112,112,112,0.08)" stroke-width="0.5"/>
                </g>
              </g>
            </g>
            <g id="Group_6843" data-name="Group 6843" transform="translate(34.971 11.463)">
              <g id="Group_6842" data-name="Group 6842">
                <g id="Group_6841" data-name="Group 6841">
                  <path id="Path_14306" data-name="Path 14306" d="M19.262,317.575c-2.709-3.214-3.222-7.9-2.017-11.929A22.994,22.994,0,0,1,24.31,295.4a38.048,38.048,0,0,1,12.652-7.465,13.5,13.5,0,0,1,5.69-.967,5.973,5.973,0,0,1,4.775,2.889c1.331,2.539.055,5.62-1.326,8.133a96.406,96.406,0,0,1-8.31,12.654c-2.491,3.211-5.344,6.379-9.14,7.83s-7.739,1.28-9.751-1.352" transform="translate(-16.63 -286.927)" fill="none" stroke="rgba(112,112,112,0.08)" stroke-width="0.5"/>
                </g>
              </g>
            </g>
            <g id="Group_6847" data-name="Group 6847" transform="translate(12.305 57.978)">
              <g id="Group_6846" data-name="Group 6846" transform="translate(0)">
                <g id="Group_6845" data-name="Group 6845">
                  <g id="Group_6844" data-name="Group 6844">
                    <path id="Path_14307" data-name="Path 14307" d="M80.615,379.363a7.774,7.774,0,0,1-.226-1.618c-.115-1.178-.258-2.658-.429-4.418a63.939,63.939,0,0,0-.994-6.48A50.021,50.021,0,0,0,76.61,359.2a28.22,28.22,0,0,0-3.905-6.92,14.589,14.589,0,0,0-4.938-4.1,13.809,13.809,0,0,0-4.158-1.295A7.856,7.856,0,0,1,62,346.646a7.527,7.527,0,0,1,1.64-.026,12.6,12.6,0,0,1,4.336,1.129,14.555,14.555,0,0,1,5.208,4.141,27.53,27.53,0,0,1,4.048,7.059,46.815,46.815,0,0,1,2.339,7.774,54.877,54.877,0,0,1,.861,6.561c.14,1.876.193,3.4.219,4.445A7.6,7.6,0,0,1,80.615,379.363Z" transform="translate(-61.997 -346.604)" fill="rgba(38,50,56,0.07)" stroke="rgba(0,0,0,0)" stroke-width="1"/>
                  </g>
                </g>
              </g>
            </g>
            <g id="Group_6851" data-name="Group 6851" transform="translate(22.342 14.314)">
              <g id="Group_6850" data-name="Group 6850" transform="translate(0)">
                <g id="Group_6849" data-name="Group 6849" transform="translate(0)">
                  <g id="Group_6848" data-name="Group 6848">
                    <path id="Path_14308" data-name="Path 14308" d="M70.273,363.609a3.2,3.2,0,0,1-.043-.751c0-.564,0-1.275.005-2.148.005-1.864,0-4.561-.1-7.892-.164-6.662-.738-13.832-1.847-23.941-1.049-9.505-2.458-20.568-3.943-27.76-.319-1.635-.64-3.108-.942-4.4s-.535-2.405-.772-3.307c-.2-.848-.37-1.539-.5-2.087a3.246,3.246,0,0,1-.132-.741,3.145,3.145,0,0,1,.261.7l.624,2.058c.277.893.56,2,.884,3.286s.691,2.752,1.041,4.385a244.035,244.035,0,0,1,4.146,25.758c1.11,10.13,1.61,19.353,1.654,26.032.04,3.34-.031,6.043-.116,7.908-.054.872-.1,1.582-.132,2.147A3.143,3.143,0,0,1,70.273,363.609Z" transform="translate(-61.997 -290.585)" fill="rgba(38,50,56,0.07)" stroke="rgba(0,0,0,0)" stroke-width="1"/>
                  </g>
                </g>
              </g>
            </g>
            <g id="Group_6855" data-name="Group 6855" transform="translate(30.543 19.753)">
              <g id="Group_6854" data-name="Group 6854" transform="translate(0)">
                <g id="Group_6853" data-name="Group 6853">
                  <g id="Group_6852" data-name="Group 6852">
                    <path id="Path_14309" data-name="Path 14309" d="M32,347.359a14.375,14.375,0,0,1,.016-2.244c.083-1.442.281-3.526.687-6.079a80.193,80.193,0,0,1,1.977-8.857,72.716,72.716,0,0,1,3.7-10.481,55.834,55.834,0,0,1,10.877-16.936,27.6,27.6,0,0,1,2.559-2.378c.393-.332.74-.663,1.093-.925l.993-.684a14.248,14.248,0,0,1,1.889-1.21,67.085,67.085,0,0,0-6.191,5.524A58.82,58.82,0,0,0,39,319.965a82.782,82.782,0,0,0-3.725,10.384,90.06,90.06,0,0,0-2.1,8.769c-.463,2.527-.732,4.59-.893,6.019A14.438,14.438,0,0,1,32,347.359Z" transform="translate(-31.974 -297.563)" fill="rgba(38,50,56,0.07)" stroke="rgba(0,0,0,0)" stroke-width="1"/>
                  </g>
                </g>
              </g>
            </g>
          </g>
          <g id="Group_6859" data-name="Group 6859" transform="translate(12.829 100.93)">
            <g id="Group_6858" data-name="Group 6858" transform="translate(0)">
              <g id="Group_6857" data-name="Group 6857">
                <path id="Path_14310" data-name="Path 14310" d="M75.383,401.708,73.6,426.128H42.227l-1.783-24.421Z" transform="translate(-40.445 -401.708)" fill="none" stroke="rgba(112,112,112,0.07)" stroke-width="1"/>
              </g>
            </g>
          </g>
          <g id="Group_6862" data-name="Group 6862" transform="translate(9.086 91.304)">
            <g id="Group_6861" data-name="Group 6861">
              <g id="Group_6860" data-name="Group 6860">
                <rect id="Rectangle_8844" data-name="Rectangle 8844" width="41.712" height="9.626" fill="none" stroke="rgba(112,112,112,0.07)" stroke-width="1"/>
              </g>
            </g>
          </g>
          <g id="Group_6865" data-name="Group 6865" transform="translate(9.775 124.416)">
            <g id="Group_6864" data-name="Group 6864" transform="translate(0)">
              <g id="Group_6863" data-name="Group 6863">
                <path id="Path_14311" data-name="Path 14311" d="M77.579,431.839v2.668H36.557v-2.668Z" transform="translate(-36.557 -431.839)" fill="none" stroke="rgba(112,112,112,0.1)" stroke-width="1"/>
              </g>
            </g>
          </g>
          <g id="Group_6868" data-name="Group 6868" transform="translate(11.269 127.084)">
            <g id="Group_6867" data-name="Group 6867" transform="translate(0)">
              <g id="Group_6866" data-name="Group 6866">
                <path id="Path_14312" data-name="Path 14312" d="M74.718,439.958l1.921-4.7H39.071l2.241,4.7Z" transform="translate(-39.071 -435.263)" fill="none" stroke="rgba(112,112,112,0.1)" stroke-width="1"/>
              </g>
            </g>
          </g>
          <g id="Group_6872" data-name="Group 6872" transform="translate(13.411 105.48)">
            <g id="Group_6871" data-name="Group 6871" transform="translate(0)">
              <g id="Group_6870" data-name="Group 6870">
                <g id="Group_6869" data-name="Group 6869">
                  <path id="Path_14313" data-name="Path 14313" d="M41.124,410.976a.95.95,0,0,0,.146.224l.469.622,1.827,2.338.082.1.078-.109,4.49-6.21h-.259l4.421,6.26.139.2.155-.185,5.243-6.237-.3,0,.288.362,4.688,5.877.157.2.144-.2,4.423-6.258-.257.012,5.447,6.205.1.111.074-.124c.718-1.207,1.29-2.168,1.705-2.865l.437-.763a1.26,1.26,0,0,0,.134-.272,1.166,1.166,0,0,0-.183.242l-.484.734-1.79,2.813.171-.014-5.36-6.281-.136-.159-.122.171-4.462,6.229.3-.008L58.206,408.1l-.288-.362-.149-.187-.154.183-5.229,6.25.294.012-4.465-6.228-.131-.182-.128.182-4.395,6.278.159-.005-1.9-2.279-.509-.589A1.032,1.032,0,0,0,41.124,410.976Z" transform="translate(-41.123 -407.546)" fill="#e0e0e0"/>
                </g>
              </g>
            </g>
          </g>
          <g id="Group_6876" data-name="Group 6876" transform="translate(12.393 100.573)">
            <g id="Group_6875" data-name="Group 6875">
              <g id="Group_6874" data-name="Group 6874">
                <g id="Group_6873" data-name="Group 6873">
                  <path id="Path_14314" data-name="Path 14314" d="M40.78,401.446c0,.108,7.861.195,17.556.195s17.557-.087,17.557-.195-7.859-.2-17.557-.2S40.78,401.338,40.78,401.446Z" transform="translate(-40.78 -401.25)" fill="rgba(69,90,100,0.1)"/>
                </g>
              </g>
            </g>
          </g>
          <g id="Group_6880" data-name="Group 6880" transform="translate(10.808 127.152)">
            <g id="Group_6879" data-name="Group 6879">
              <g id="Group_6878" data-name="Group 6878">
                <g id="Group_6877" data-name="Group 6877">
                  <path id="Path_14315" data-name="Path 14315" d="M38.9,435.545c0,.108,8.543.195,19.08.195s19.081-.087,19.081-.195-8.541-.2-19.081-.2S38.9,435.437,38.9,435.545Z" transform="translate(-38.903 -435.349)" fill="rgba(38,50,56,0.1)"/>
                </g>
              </g>
            </g>
          </g>
        </g>
      </g>
      <g id="Chair" transform="translate(8.024 216.631)">
        <g id="Group_6883" data-name="Group 6883" transform="translate(0)">
          <path id="Rectangle_8845" data-name="Rectangle 8845" d="M15.126,0H81.354A15.126,15.126,0,0,1,96.479,15.126v88.343a0,0,0,0,1,0,0H0a0,0,0,0,1,0,0V15.126A15.126,15.126,0,0,1,15.126,0Z" fill="#455a64"/>
          <g id="Group_6882" data-name="Group 6882" transform="translate(7.909 0.527)">
            <path id="Path_14316" data-name="Path 14316" d="M461.286,309.788c-.112,0-.2,23.035-.2,51.442s.09,51.447.2,51.447.2-23.029.2-51.447S461.4,309.788,461.286,309.788Z" transform="translate(-461.083 -309.788)" fill="#263238"/>
          </g>
        </g>
      </g>
      <g id="Character" transform="translate(17.421 86.049)">
        <g id="Group_7073" data-name="Group 7073" transform="translate(0)">
          <g id="Group_6885" data-name="Group 6885" transform="translate(0 12.335)">
            <path id="Path_14317" data-name="Path 14317" d="M411.086,163.327a81.826,81.826,0,0,0-14.665,43.132c-.454,10.368.942,21.416-3.978,30.552-7.058,13.107-22.331,12.662-27.007,26.8-2.034,6.146,1.716,19.675,2.727,26.07,1.149,7.269-3.3,13.373-2.149,20.642,1.053,6.663,6.039,11.419,12.029,14.521,5.328,2.76,10.255,2.833,15.8.539,10.564-4.374,19.356-8.989,26.883-17.6,10.566-12.082,13.758-28.812,15.564-44.761A392.857,392.857,0,0,0,433.9,157.408" transform="translate(-364.841 -157.408)" fill="#eb741d"/>
            <g id="Group_6884" data-name="Group 6884" transform="translate(8.371 53.294)">
              <path id="Path_14318" data-name="Path 14318" d="M419.734,342.144s-.115-.036-.341-.085-.566-.106-1-.237a16.547,16.547,0,0,1-3.65-1.459,16.194,16.194,0,0,1-4.821-3.866,10.13,10.13,0,0,1-1.885-3.342,18.282,18.282,0,0,1-.659-4.283,42.013,42.013,0,0,1,1.009-9.933,82.476,82.476,0,0,0,1.824-11.4,23.491,23.491,0,0,0-.441-6.25,40.775,40.775,0,0,0-1.981-6.219c-.793-2.063-1.628-4.148-2.233-6.332a16.241,16.241,0,0,1-.54-6.781,15.336,15.336,0,0,1,2.529-6.3,29.28,29.28,0,0,1,4.42-5.008c3.221-3.006,6.706-5.487,9.683-8.275a54.818,54.818,0,0,0,12.611-17.411,53.317,53.317,0,0,0,2.9-7.774c.374-1.164.588-2.285.855-3.3.2-1.025.384-1.963.549-2.809.248-1.7.429-3.024.478-3.929.034-.436.06-.776.079-1.026.016-.231.013-.35.013-.35s-.025.117-.055.347c-.029.248-.069.587-.119,1.021-.076.9-.281,2.218-.553,3.911q-.263,1.262-.582,2.793c-.277,1.005-.5,2.119-.884,3.275A54.17,54.17,0,0,1,434,244.844,54.954,54.954,0,0,1,421.4,262.1c-2.961,2.76-6.452,5.236-9.7,8.26a29.58,29.58,0,0,0-4.484,5.074,15.715,15.715,0,0,0-2.6,6.466,16.625,16.625,0,0,0,.552,6.946c.615,2.215,1.458,4.312,2.251,6.369a40.555,40.555,0,0,1,1.974,6.157,23.171,23.171,0,0,1,.447,6.151,83.039,83.039,0,0,1-1.781,11.354,41.989,41.989,0,0,0-.966,10.01,18.422,18.422,0,0,0,.7,4.349,10.342,10.342,0,0,0,1.956,3.407,16.167,16.167,0,0,0,4.922,3.861,15.692,15.692,0,0,0,3.7,1.4A9.307,9.307,0,0,0,419.734,342.144Z" transform="translate(-404.452 -225.781)" fill="#455a64"/>
            </g>
          </g>
          <g id="Group_6919" data-name="Group 6919" transform="translate(19.115 87.011)">
            <g id="Group_6906" data-name="Group 6906" transform="translate(80.665 19.122)">
              <g id="Group_6904" data-name="Group 6904">
                <path id="Path_14319" data-name="Path 14319" d="M312.159,381.457l-37.4-17.765s-14.567-70.732-17.322-76.044-14.269-9.9-14.269-9.9l1.929,95.78,3.416,22.094,52.753,5Z" transform="translate(-243.164 -277.746)" fill="#c7e0f4"/>
                <g id="Group_6902" data-name="Group 6902" transform="translate(55.939 96.85)">
                  <g id="Group_6886" data-name="Group 6886" transform="translate(35.655 23.617)">
                    <path id="Path_14320" data-name="Path 14320" d="M210.611,432.3c.206-.008,1.247.644.375,2.285s-7.2,7.074-9.069,5.183.983-4.2.983-4.2Z" transform="translate(-201.284 -432.298)" fill="#ffbe9d"/>
                  </g>
                  <g id="Group_6889" data-name="Group 6889" transform="translate(0 5.402)">
                    <g id="Group_6888" data-name="Group 6888" transform="translate(0)">
                      <g id="Group_6887" data-name="Group 6887">
                        <path id="Path_14321" data-name="Path 14321" d="M235.3,430.485s-7.648.965-10.594,2.084a11.118,11.118,0,0,1-9.714-1.39,27.658,27.658,0,0,1-4.15-3.381l-9.758-.154a11.712,11.712,0,0,1-1.9-12.091,13.059,13.059,0,0,1,2.235-3.808c1.159-1.253,2.989-2.27,6.152-2.816l11.593,2.5s17.961-1.284,21.153.226c0,0,4.013,2.38,5.255,3.378.468.376,1.89,4.946-1.031,7.322,0,0,2.543,2.023,1.166,3.836l-.66.805s1.71,2.214.832,3.177-8.563,5.467-11.311,4.394-.475-3.621.736-4.087" transform="translate(-198.295 -408.929)" fill="#ffbe9d"/>
                      </g>
                    </g>
                  </g>
                  <g id="Group_6891" data-name="Group 6891" transform="translate(34.037 14.881)">
                    <g id="Group_6890" data-name="Group 6890" transform="translate(0)">
                      <path id="Path_14322" data-name="Path 14322" d="M210.818,421.092a7.007,7.007,0,0,0-.951.339c-.606.231-1.484.558-2.587.909-.551.175-1.159.355-1.817.528s-1.37.32-2.113.561a4.528,4.528,0,0,0-2.106,1.27,2.6,2.6,0,0,0-.563,2.565,2.026,2.026,0,0,0,.949,1.02,3.565,3.565,0,0,0,1.277.356,10.594,10.594,0,0,0,2.437-.129,21.541,21.541,0,0,0,3.964-1.033c1.1-.388,1.964-.755,2.561-1.01a5.827,5.827,0,0,0,.913-.433,6.522,6.522,0,0,0-.959.317c-.61.219-1.488.553-2.589.912a22.938,22.938,0,0,1-3.932.956,10.565,10.565,0,0,1-2.362.109,3.274,3.274,0,0,1-1.162-.326,1.709,1.709,0,0,1-.8-.86,2.3,2.3,0,0,1,.507-2.243,4.291,4.291,0,0,1,1.96-1.192c.716-.242,1.432-.393,2.091-.585s1.267-.379,1.818-.569c1.1-.38,1.97-.742,2.564-1.009A5.359,5.359,0,0,0,210.818,421.092Z" transform="translate(-200.538 -421.09)" fill="#eb996e"/>
                    </g>
                  </g>
                  <g id="Group_6893" data-name="Group 6893" transform="translate(33.265 9.351)">
                    <g id="Group_6892" data-name="Group 6892" transform="translate(0)">
                      <path id="Path_14323" data-name="Path 14323" d="M212.074,414a6.926,6.926,0,0,0-.945.343c-.6.232-1.475.567-2.569.931s-2.409.761-3.89,1.115a5.331,5.331,0,0,0-2.268.918,1.932,1.932,0,0,0-.666,1.173,2.446,2.446,0,0,0,.2,1.364,3.285,3.285,0,0,0,2,1.7,5.3,5.3,0,0,0,2.438.193,23.484,23.484,0,0,0,3.921-1.135l2.585-.9a6.03,6.03,0,0,0,.934-.373,6.11,6.11,0,0,0-.973.256l-2.617.808a25.351,25.351,0,0,1-3.887,1.058,5.047,5.047,0,0,1-2.3-.2,2.99,2.99,0,0,1-1.811-1.537,1.806,1.806,0,0,1,.381-2.173,5.155,5.155,0,0,1,2.133-.868,40.121,40.121,0,0,0,3.894-1.189c1.09-.394,1.953-.762,2.543-1.03A5.428,5.428,0,0,0,212.074,414Z" transform="translate(-201.71 -413.995)" fill="#eb996e"/>
                    </g>
                  </g>
                  <g id="Group_6895" data-name="Group 6895" transform="translate(39.849 7.867)">
                    <g id="Group_6894" data-name="Group 6894" transform="translate(0)">
                      <path id="Path_14324" data-name="Path 14324" d="M207.8,415.157a56.362,56.362,0,0,1,.737-3.064,3.81,3.81,0,0,0-.737,3.064Z" transform="translate(-207.706 -412.091)" fill="#eb996e"/>
                    </g>
                  </g>
                  <g id="Group_6899" data-name="Group 6899" transform="translate(12.952)">
                    <g id="Group_6896" data-name="Group 6896" transform="translate(0 0.158)">
                      <path id="Path_14325" data-name="Path 14325" d="M208.368,413.205l6.819-2.628s18.934-8.836,19.253-8.358,1.347.426,1.122,2.735-11.258,6.962-11.608,7.763.233,4.843-3.842,7.739-7.015,2.959-7.015,2.959" transform="translate(-208.368 -402.201)" fill="#ffbe9d"/>
                    </g>
                    <g id="Group_6898" data-name="Group 6898">
                      <g id="Group_6897" data-name="Group 6897">
                        <path id="Path_14326" data-name="Path 14326" d="M212.9,423.371a.512.512,0,0,0,.161.005,4.6,4.6,0,0,0,.472-.047,10.554,10.554,0,0,0,1.771-.425,17.124,17.124,0,0,0,5.782-3.327,8.2,8.2,0,0,0,2.324-3.985,18.511,18.511,0,0,0,.4-2.546,1.427,1.427,0,0,1,.067-.292.549.549,0,0,1,.178-.182,6.188,6.188,0,0,1,.553-.359c.387-.228.791-.447,1.2-.666,1.642-.875,3.39-1.759,5.153-2.773.882-.507,1.768-1.044,2.629-1.658a10,10,0,0,0,1.234-1.03,3.4,3.4,0,0,0,.52-.658A1.441,1.441,0,0,0,235.5,405a3.391,3.391,0,0,0,.041-.419,3.007,3.007,0,0,0-.292-1.648,1.955,1.955,0,0,0-.6-.6,1.173,1.173,0,0,1-.261-.226.339.339,0,0,0-.065-.065.21.21,0,0,0-.134-.042.633.633,0,0,0-.133.01c-.072.014-.141.03-.207.049-1.026.316-1.964.729-2.907,1.115-1.871.789-3.659,1.586-5.36,2.35-3.4,1.531-6.445,2.945-9,4.141-.639.293-1.243.6-1.821.844l-1.668.655-2.669,1.058-1.683.68-.434.185a.617.617,0,0,0-.144.072.609.609,0,0,0,.156-.042l.446-.155,1.705-.625,2.691-1.008,1.679-.634c.593-.244,1.192-.539,1.836-.826l9.022-4.078c1.7-.756,3.492-1.546,5.361-2.33.933-.382,1.891-.8,2.868-1.1.061-.018.12-.031.176-.042a.451.451,0,0,1,.062-.006c0-.011,0,.023.01-.025s0-.051.012-.078a.055.055,0,0,1,.022-.023c-.214.145-.054.047-.1.083l.02.024a1.422,1.422,0,0,0,.329.293,1.632,1.632,0,0,1,.514.508,2.71,2.71,0,0,1,.248,1.469,1.41,1.41,0,0,1-.157.7,3.083,3.083,0,0,1-.47.591,9.739,9.739,0,0,1-1.192,1c-.844.6-1.723,1.139-2.6,1.644-1.752,1.012-3.494,1.9-5.137,2.785-.41.222-.815.444-1.209.678a6.7,6.7,0,0,0-.579.38.787.787,0,0,0-.267.3,1.658,1.658,0,0,0-.083.354,18.569,18.569,0,0,1-.382,2.525,8,8,0,0,1-2.225,3.889,15.7,15.7,0,0,1-3.069,2.183,16.262,16.262,0,0,1-2.6,1.189,12.2,12.2,0,0,1-1.741.479c-.2.04-.359.062-.464.077A.757.757,0,0,0,212.9,423.371Z" transform="translate(-208.167 -401.999)" fill="#eb996e"/>
                      </g>
                    </g>
                  </g>
                  <g id="Group_6901" data-name="Group 6901" transform="translate(34.458 22.259)">
                    <g id="Group_6900" data-name="Group 6900" transform="translate(0)">
                      <path id="Path_14327" data-name="Path 14327" d="M204.54,430.559a2.354,2.354,0,0,0-.724.211,7.152,7.152,0,0,0-1.786,1.031,6.475,6.475,0,0,0-1.031,1,2.169,2.169,0,0,0-.55,1.594,1.768,1.768,0,0,0,1.262,1.364,3.4,3.4,0,0,0,1.984-.063,36.416,36.416,0,0,0,6.278-2.52,20.247,20.247,0,0,0,1.765-1.044,3.083,3.083,0,0,0,.6-.454,3.732,3.732,0,0,0-.666.347c-.419.237-1.03.571-1.8.949a43.592,43.592,0,0,1-6.26,2.413,3.141,3.141,0,0,1-1.8.074,1.476,1.476,0,0,1-1.069-1.109,1.925,1.925,0,0,1,.469-1.391,6.527,6.527,0,0,1,.964-.988A10.76,10.76,0,0,1,204.54,430.559Z" transform="translate(-200.435 -430.556)" fill="#eb996e"/>
                    </g>
                  </g>
                </g>
                <g id="Group_6903" data-name="Group 6903" transform="translate(5.614 49.956)" opacity="0.3">
                  <path id="Path_14328" data-name="Path 14328" d="M300.8,409.777c6.127-20.663,11.53-47.278,17.656-67.94,2.239,19.077-.564,44.26-4.076,63.145-.412,2.213-.6,4.382-2.317,5.838L300.8,409.777" transform="translate(-300.797 -341.837)"/>
                </g>
              </g>
              <g id="Group_6905" data-name="Group 6905" transform="translate(15.641 86.439)">
                <path id="Path_14329" data-name="Path 14329" d="M291.044,405.914c.083.02.341-1.348,1.172-3.412a23.934,23.934,0,0,1,1.758-3.476,24.061,24.061,0,0,1,6.451-6.948,23.88,23.88,0,0,1,3.336-2.01c2-.981,3.341-1.341,3.316-1.421a4.426,4.426,0,0,0-.949.225,8.829,8.829,0,0,0-1.087.359,14.683,14.683,0,0,0-1.4.578,21.826,21.826,0,0,0-3.43,1.965,22.937,22.937,0,0,0-6.554,7.059,21.824,21.824,0,0,0-1.7,3.566,14.634,14.634,0,0,0-.472,1.442,8.854,8.854,0,0,0-.278,1.111A4.462,4.462,0,0,0,291.044,405.914Z" transform="translate(-291.038 -388.642)" fill="#263238"/>
              </g>
            </g>
            <path id="Path_14330" data-name="Path 14330" d="M384.091,271.371s19.595,43.767,19.595,51.8S389,387.04,389,387.04c.139,2.215.71,13.344.71,13.344l-82.3.281h0l-1.253-17.691,6.424-16.86-6.419-47.66s-4.319-27.672-4.7-35.411c-.481-9.684,32.32-20.908,31.426-22.248l5.664-7.582L371,279.562l6.411-18.519L385.1,268.3Z" transform="translate(-299.461 -253.213)" fill="#c7e0f4"/>
            <path id="Path_14331" data-name="Path 14331" d="M356.037,288.934c8.907,15.072,25.211,42.541,25.211,42.541l29.214,33.309s1.911,16.927-1.911,22.115-10.375,8.737-10.375,8.737-7.714,0-17.508-8.191S343.843,345.4,343.843,345.4L334.561,334.2s-11.065-27.19-9-41.028c.8-5.335,3.067-7.555,6.1-10C339.276,277.029,351.059,280.509,356.037,288.934Z" transform="translate(-325.304 -259.134)" fill="#c7e0f4"/>
            <g id="Group_6907" data-name="Group 6907" transform="translate(5.825 65.621)">
              <path id="Path_14332" data-name="Path 14332" d="M322.656,337.4a2.11,2.11,0,0,0,.135.309l.433.888c.387.776.982,1.911,1.794,3.346,1.612,2.876,4.117,6.941,7.4,11.839,1.641,2.448,3.476,5.1,5.489,7.926a100.643,100.643,0,0,1,6.2,9.127c1.937,3.367,3.6,7.109,5.67,10.824A67.824,67.824,0,0,0,357.2,392.5a43.428,43.428,0,0,0,9.841,8.7,30.956,30.956,0,0,0,11.393,4.412,25.623,25.623,0,0,0,11.04-.468,21.037,21.037,0,0,0,4.668-1.893,21.338,21.338,0,0,0,3.846-2.6,17.942,17.942,0,0,0,4.82-6.308,20.394,20.394,0,0,0,1.571-5.8,26,26,0,0,0,.133-3.8c-.024-.419-.043-.745-.057-.986a2.031,2.031,0,0,0-.033-.334,2.01,2.01,0,0,0-.009.337c0,.241.009.567.016.986a28.656,28.656,0,0,1-.208,3.775,20.529,20.529,0,0,1-1.62,5.727,17.813,17.813,0,0,1-4.8,6.183,21.15,21.15,0,0,1-3.811,2.548,20.818,20.818,0,0,1-4.608,1.844,25.36,25.36,0,0,1-10.889.423,30.675,30.675,0,0,1-11.244-4.38,43.2,43.2,0,0,1-9.744-8.625,67.935,67.935,0,0,1-7.386-10.772c-2.062-3.691-3.734-7.432-5.692-10.817a99.776,99.776,0,0,0-6.252-9.138c-2.023-2.81-3.87-5.454-5.525-7.89-3.306-4.873-5.845-8.909-7.5-11.757-.832-1.421-1.448-2.542-1.859-3.306-.2-.368-.354-.656-.468-.868A2.044,2.044,0,0,0,322.656,337.4Z" transform="translate(-322.656 -337.401)" fill="#263238"/>
            </g>
            <g id="Group_6908" data-name="Group 6908" transform="translate(86.618 104.141)">
              <path id="Path_14333" data-name="Path 14333" d="M320.683,386.825c-.034.059.415.313.952.91a4.721,4.721,0,0,1,.531,5.742c-.419.686-.815,1.019-.769,1.07.023.036.5-.223,1.008-.91a4.61,4.61,0,0,0-.564-6.1A2.324,2.324,0,0,0,320.683,386.825Z" transform="translate(-320.682 -386.82)" fill="#263238"/>
            </g>
            <g id="Group_6909" data-name="Group 6909" transform="translate(51.142 84.982)">
              <path id="Path_14334" data-name="Path 14334" d="M361.039,390.248a2.094,2.094,0,0,0-.458.105c-.147.038-.327.1-.543.149l-.756.139a10.806,10.806,0,0,1-4.818-.448,17.762,17.762,0,0,1-6.2-3.646,47.157,47.157,0,0,1-5.813-6.746,40.724,40.724,0,0,0-5.989-6.695c-1.059-.89-2.1-1.678-2.966-2.526a8.367,8.367,0,0,1-1.949-2.685,4.888,4.888,0,0,1,.449-4.6,3.535,3.535,0,0,1,1.409-1.052,1.835,1.835,0,0,0-.454.13,3.035,3.035,0,0,0-1.078.824,5,5,0,0,0-.594,4.8,8.576,8.576,0,0,0,1.981,2.822c.876.878,1.919,1.682,2.96,2.571a41.789,41.789,0,0,1,5.91,6.657,45.681,45.681,0,0,0,5.889,6.781,17.685,17.685,0,0,0,6.364,3.639,10.536,10.536,0,0,0,4.929.329l.76-.177c.216-.063.394-.138.539-.189A1.975,1.975,0,0,0,361.039,390.248Z" transform="translate(-330.934 -362.24)" fill="#263238"/>
            </g>
            <g id="Group_6910" data-name="Group 6910" transform="translate(26.769 25.171)">
              <path id="Path_14335" data-name="Path 14335" d="M364.57,285.507a3.113,3.113,0,0,0,.327.471l1,1.3c.889,1.109,2.113,2.762,3.6,4.819a157.9,157.9,0,0,1,10.395,16.891c3.674,6.83,6.719,13.166,9.046,17.689,1.157,2.264,2.109,4.09,2.8,5.336l.793,1.433a2.969,2.969,0,0,0,.3.486,2.983,2.983,0,0,0-.228-.525c-.184-.371-.425-.859-.726-1.468l-2.679-5.392c-2.26-4.554-5.264-10.91-8.945-17.753a142.9,142.9,0,0,0-10.52-16.867c-1.524-2.039-2.784-3.669-3.713-4.749l-1.058-1.251A2.993,2.993,0,0,0,364.57,285.507Z" transform="translate(-364.569 -285.506)" fill="#263238"/>
            </g>
            <g id="Group_6911" data-name="Group 6911" transform="translate(64.467 106.123)" opacity="0.3">
              <path id="Path_14336" data-name="Path 14336" d="M345.92,394.881c-3.8,2.06-7.972,1.841-12.213,1.008a18.953,18.953,0,0,1-10.908-6.526,18.988,18.988,0,0,0,5.025,9.961,12.077,12.077,0,0,0,10.327,3.493c3.714-.681,7.463-4.172,7.77-7.935" transform="translate(-322.798 -389.362)"/>
            </g>
            <g id="Group_6912" data-name="Group 6912" transform="translate(45.898 68.147)" opacity="0.3">
              <path id="Path_14337" data-name="Path 14337" d="M370.31,361.643A16.754,16.754,0,0,0,368,374.206c-3.219-4.928-3.975-11.167-3.108-16.989s3.231-11.312,5.865-16.575a54.438,54.438,0,0,1,2.933,5.448c.141,2.833-.9,8.168-1.45,10.951a6.106,6.106,0,0,0-1.772,5.5" transform="translate(-364.554 -340.642)"/>
            </g>
            <g id="Group_6913" data-name="Group 6913" transform="translate(7.951 69.596)" opacity="0.3">
              <path id="Path_14338" data-name="Path 14338" d="M406.081,404.937c-7.745,6.038-19.24,6.322-27.716,1.361-8.162-4.778-13.187-13.38-17.851-21.608-7.221-12.736-16.032-28.487-21.19-42.189,0,0,14.461,19.73,18.818,28.234A140.661,140.661,0,0,0,368,387.343a42.547,42.547,0,0,0,37.326,18.182" transform="translate(-339.323 -342.501)"/>
            </g>
            <g id="Group_6914" data-name="Group 6914" transform="translate(89.373 87.787)">
              <path id="Path_14339" data-name="Path 14339" d="M305.51,425.222a.894.894,0,0,0,.013-.245c0-.19-.008-.424-.013-.71-.024-.663-.057-1.568-.1-2.7-.108-2.371-.261-5.7-.444-9.695l-.007.055c1.4-4.675,3.038-10.346,4.731-16.473,2.246-8.121,4.142-15.51,5.417-20.882.636-2.686,1.133-4.864,1.444-6.377q.222-1.09.355-1.741a3.452,3.452,0,0,0,.1-.613,3.582,3.582,0,0,0-.176.6q-.161.647-.429,1.724l-1.568,6.344c-1.346,5.351-3.285,12.725-5.53,20.842-1.692,6.124-3.3,11.8-4.662,16.486l-.009.029,0,.026c.242,4,.444,7.32.588,9.69.08,1.132.143,2.035.189,2.7.026.285.046.518.063.708A.887.887,0,0,0,305.51,425.222Z" transform="translate(-304.63 -365.839)" fill="#263238"/>
            </g>
            <g id="Group_6915" data-name="Group 6915" transform="translate(7.915 21.853)">
              <path id="Path_14340" data-name="Path 14340" d="M405.517,282.969c.024.062.842-.228,2.194-.563a25.249,25.249,0,0,1,10.78-.323c1.369.253,2.2.494,2.224.43a1.824,1.824,0,0,0-.563-.247,14.315,14.315,0,0,0-1.6-.465,21.39,21.39,0,0,0-10.914.327,14.4,14.4,0,0,0-1.572.56C405.7,282.845,405.507,282.943,405.517,282.969Z" transform="translate(-405.517 -281.249)" fill="#263238"/>
            </g>
            <g id="Group_6916" data-name="Group 6916" transform="translate(33.984 9.202)">
              <path id="Path_14341" data-name="Path 14341" d="M359.76,265.019a1.877,1.877,0,0,0,.207.4l.663,1.117c.586.965,1.454,2.349,2.553,4.041,2.205,3.38,5.36,7.982,9.091,12.884,3,3.95,5.91,7.494,8.292,10.271l.167.195.106-.231c1.131-2.483,2.069-4.538,2.748-6.028l.736-1.675a3.241,3.241,0,0,0,.229-.6,3.258,3.258,0,0,0-.317.562q-.313.629-.816,1.638c-.712,1.475-1.692,3.511-2.876,5.968l.273-.037c-2.341-2.805-5.221-6.362-8.219-10.305-3.725-4.893-6.911-9.462-9.174-12.8l-2.659-3.966-.727-1.076A1.946,1.946,0,0,0,359.76,265.019Z" transform="translate(-359.759 -265.019)" fill="#263238"/>
            </g>
            <g id="Group_6917" data-name="Group 6917" transform="translate(13.02 116.86)">
              <path id="Path_14342" data-name="Path 14342" d="M417.869,421.164c.111-.013-.246-4.058-.8-9.036s-1.09-9-1.2-8.992.246,4.058.8,9.036S417.757,421.177,417.869,421.164Z" transform="translate(-415.849 -403.137)" fill="#263238"/>
            </g>
            <g id="Group_6918" data-name="Group 6918" transform="translate(69.972 133.827)">
              <path id="Path_14343" data-name="Path 14343" d="M344.945,424.9a115.909,115.909,0,0,0-1.454,13.625,115.508,115.508,0,0,0,1.454-13.625Z" transform="translate(-343.463 -424.905)" fill="#263238"/>
            </g>
            <path id="Path_14344" data-name="Path 14344" d="M394.557,310.473a1,1,0,0,1,1.511-.6l.052.043a.946.946,0,1,1-1.564.557Z" transform="translate(-364.734 -265.672)" fill="#fff"/>
            <path id="Path_14345" data-name="Path 14345" d="M384.13,285.058a1,1,0,0,1,1.511-.6l.052.044a.945.945,0,1,1-1.564.557Z" transform="translate(-346.18 -260.067)" fill="#fff"/>
            <path id="Path_14346" data-name="Path 14346" d="M360.2,305.522a1,1,0,0,1,1.511-.6l.052.044a.945.945,0,1,1-1.564.557Z" transform="translate(-303.599 -264.58)" fill="#fff"/>
            <path id="Path_14347" data-name="Path 14347" d="M334.332,295.246a1,1,0,0,1,1.511-.6l.052.043a.946.946,0,1,1-1.564.557Z" transform="translate(-257.567 -262.313)" fill="#fff"/>
            <path id="Path_14348" data-name="Path 14348" d="M329.756,285.116a1,1,0,0,1,1.511-.6l.053.044a.945.945,0,1,1-1.564.557Z" transform="translate(-249.424 -260.079)" fill="#fff"/>
            <path id="Path_14349" data-name="Path 14349" d="M331.743,273.411a1,1,0,0,1,1.511-.6l.053.043a.945.945,0,1,1-1.564.557Z" transform="translate(-252.96 -257.498)" fill="#fff"/>
            <path id="Path_14350" data-name="Path 14350" d="M317.417,289.511a1,1,0,0,1,1.511-.6l.052.043a.945.945,0,1,1-1.564.557Z" transform="translate(-227.468 -261.049)" fill="#fff"/>
            <path id="Path_14351" data-name="Path 14351" d="M350.6,294.154a1,1,0,0,1,1.511-.6l.052.043a.945.945,0,1,1-1.563.557Z" transform="translate(-286.519 -262.073)" fill="#fff"/>
            <path id="Path_14352" data-name="Path 14352" d="M322.507,315.019a1,1,0,0,1,1.511-.6l.052.044a.945.945,0,1,1-1.564.557Z" transform="translate(-236.524 -266.674)" fill="#fff"/>
            <path id="Path_14353" data-name="Path 14353" d="M296.789,375.04a1,1,0,0,1,1.511-.6l.052.044a.945.945,0,1,1-1.564.557Z" transform="translate(-190.76 -279.911)" fill="#fff"/>
            <path id="Path_14354" data-name="Path 14354" d="M305.965,340.425a1,1,0,0,1,1.511-.6l.052.043a.945.945,0,1,1-1.564.557Z" transform="translate(-207.089 -272.277)" fill="#fff"/>
            <path id="Path_14355" data-name="Path 14355" d="M373.6,279.639a1,1,0,0,1,1.511-.6l.053.044a.945.945,0,1,1-1.564.557Z" transform="translate(-327.448 -258.872)" fill="#fff"/>
            <path id="Path_14356" data-name="Path 14356" d="M405.883,348.568a1,1,0,0,1,1.511-.6l.052.043a.946.946,0,1,1-1.564.557Z" transform="translate(-384.889 -274.073)" fill="#fff"/>
            <path id="Path_14357" data-name="Path 14357" d="M418.462,289.25a1,1,0,0,1,1.511-.6l.052.044a.945.945,0,1,1-1.564.557Z" transform="translate(-407.272 -260.991)" fill="#fff"/>
            <path id="Path_14358" data-name="Path 14358" d="M413.523,328.1a1,1,0,0,1,1.511-.6l.053.044a.945.945,0,1,1-1.564.557Z" transform="translate(-398.484 -269.558)" fill="#fff"/>
            <path id="Path_14359" data-name="Path 14359" d="M385.317,356.145a1,1,0,0,1,1.511-.6l.052.044a.945.945,0,1,1-1.564.557Z" transform="translate(-348.292 -275.744)" fill="#fff"/>
            <path id="Path_14360" data-name="Path 14360" d="M386.5,332.8a1,1,0,0,1,1.511-.6l.052.044a.945.945,0,1,1-1.564.557Z" transform="translate(-350.404 -270.595)" fill="#fff"/>
            <path id="Path_14361" data-name="Path 14361" d="M403.522,289.453a1,1,0,0,1,1.511-.6l.052.043a.945.945,0,1,1-1.564.557Z" transform="translate(-380.687 -261.036)" fill="#fff"/>
            <path id="Path_14362" data-name="Path 14362" d="M380.613,266.83a1,1,0,0,1,1.511-.6l.052.044a.945.945,0,1,1-1.564.557Z" transform="translate(-339.922 -256.046)" fill="#fff"/>
            <path id="Path_14363" data-name="Path 14363" d="M379.781,303.3a1,1,0,0,1,1.511-.6l.052.044a.945.945,0,1,1-1.564.557Z" transform="translate(-338.442 -264.089)" fill="#fff"/>
            <path id="Path_14364" data-name="Path 14364" d="M350.535,414.548a1,1,0,0,1,1.511-.6l.053.044a.945.945,0,1,1-1.564.557Z" transform="translate(-286.399 -288.624)" fill="#fff"/>
            <path id="Path_14365" data-name="Path 14365" d="M316.987,396.254a1,1,0,0,1,1.511-.6l.052.044a.945.945,0,1,1-1.563.557Z" transform="translate(-226.702 -284.59)" fill="#fff"/>
            <path id="Path_14366" data-name="Path 14366" d="M289.861,405.22a1,1,0,0,1,1.511-.6l.052.044a.945.945,0,1,1-1.564.557Z" transform="translate(-178.432 -286.567)" fill="#fff"/>
            <path id="Path_14367" data-name="Path 14367" d="M286.958,420.67a1,1,0,0,1,1.511-.6l.052.044a.945.945,0,1,1-1.564.557Z" transform="translate(-173.266 -289.975)" fill="#fff"/>
            <path id="Path_14368" data-name="Path 14368" d="M312.39,425.846a1,1,0,0,1,1.511-.6l.052.044a.945.945,0,1,1-1.564.557Z" transform="translate(-218.523 -291.116)" fill="#fff"/>
            <path id="Path_14369" data-name="Path 14369" d="M303.886,391.247a1,1,0,0,1,1.511-.6l.053.044a.945.945,0,1,1-1.564.557Z" transform="translate(-203.389 -283.486)" fill="#fff"/>
            <path id="Path_14370" data-name="Path 14370" d="M335.089,400.039a1,1,0,0,1,1.511-.6l.052.043a.946.946,0,1,1-1.564.557Z" transform="translate(-258.915 -285.424)" fill="#fff"/>
            <path id="Path_14371" data-name="Path 14371" d="M409.263,391.189a1,1,0,0,1,1.511-.6l.052.044a.945.945,0,1,1-1.564.557Z" transform="translate(-390.903 -283.473)" fill="#fff"/>
            <path id="Path_14372" data-name="Path 14372" d="M363.369,435.166a1,1,0,0,1,1.511-.6l.052.043a.946.946,0,1,1-1.564.557Z" transform="translate(-309.236 -293.171)" fill="#fff"/>
            <path id="Path_14373" data-name="Path 14373" d="M382.943,410.686a1,1,0,0,1,1.511-.6l.052.044a.945.945,0,1,1-1.564.557Z" transform="translate(-344.068 -287.773)" fill="#fff"/>
            <path id="Path_14374" data-name="Path 14374" d="M394.569,430.595a1,1,0,0,1,1.511-.6l.052.044a.945.945,0,1,1-1.564.557Z" transform="translate(-364.756 -292.163)" fill="#fff"/>
            <path id="Path_14375" data-name="Path 14375" d="M362.219,326.333a1,1,0,0,1,1.511-.6l.052.044a.945.945,0,1,1-1.564.557Z" transform="translate(-307.19 -269.169)" fill="#fff"/>
            <path id="Path_14376" data-name="Path 14376" d="M388.543,377.159a1,1,0,0,1,1.511-.6l.052.044a.945.945,0,1,1-1.564.557Z" transform="translate(-354.033 -280.379)" fill="#fff"/>
            <path id="Path_14377" data-name="Path 14377" d="M380.006,396.412a1,1,0,0,1,1.511-.6l.052.043a.945.945,0,1,1-1.563.557Z" transform="translate(-338.842 -284.625)" fill="#fff"/>
            <path id="Path_14378" data-name="Path 14378" d="M408.076,411.874a1,1,0,0,1,1.511-.6l.052.044a.945.945,0,1,1-1.564.557Z" transform="translate(-388.79 -288.035)" fill="#fff"/>
            <path id="Path_14379" data-name="Path 14379" d="M331.268,434.2a1,1,0,0,1,1.511-.6l.052.044a.945.945,0,1,1-1.564.557Z" transform="translate(-252.114 -292.958)" fill="#fff"/>
            <path id="Path_14380" data-name="Path 14380" d="M267.265,428.358a1,1,0,0,1,1.511-.6l.052.044a.945.945,0,1,1-1.564.557Z" transform="translate(-138.223 -291.67)" fill="#fff"/>
            <path id="Path_14381" data-name="Path 14381" d="M323.627,417.846a1,1,0,0,1,1.511-.6l.052.044a.945.945,0,1,1-1.563.557Z" transform="translate(-238.518 -289.352)" fill="#fff"/>
            <path id="Path_14382" data-name="Path 14382" d="M269.639,406.409a1,1,0,0,1,1.511-.6l.052.043a.946.946,0,1,1-1.564.557Z" transform="translate(-142.448 -286.829)" fill="#fff"/>
            <path id="Path_14383" data-name="Path 14383" d="M359.845,370.112a1,1,0,0,1,1.511-.6l.052.044a.945.945,0,1,1-1.564.557Z" transform="translate(-302.966 -278.825)" fill="#fff"/>
            <path id="Path_14384" data-name="Path 14384" d="M340.967,315.019a1,1,0,0,1,1.511-.6l.052.044a.945.945,0,1,1-1.564.557Z" transform="translate(-269.373 -266.674)" fill="#fff"/>
            <path id="Path_14385" data-name="Path 14385" d="M336.25,362.8a1,1,0,0,1,1.511-.6l.053.044a.945.945,0,1,1-1.564.557Z" transform="translate(-260.98 -277.211)" fill="#fff"/>
            <path id="Path_14386" data-name="Path 14386" d="M328.569,347.212a1,1,0,0,1,1.511-.6l.053.044a.945.945,0,1,1-1.564.557Z" transform="translate(-247.312 -273.774)" fill="#fff"/>
            <path id="Path_14387" data-name="Path 14387" d="M362.536,396.2a1,1,0,0,1,1.511-.6l.052.044a.945.945,0,1,1-1.564.557Z" transform="translate(-307.754 -284.577)" fill="#fff"/>
            <path id="Path_14388" data-name="Path 14388" d="M338.593,386.584a1,1,0,0,1,1.511-.6l.052.044a.945.945,0,1,1-1.564.557Z" transform="translate(-265.148 -282.457)" fill="#fff"/>
            <path id="Path_14389" data-name="Path 14389" d="M348.842,333.829a1,1,0,0,1,1.511-.6l.052.044a.945.945,0,1,1-1.564.557Z" transform="translate(-283.386 -270.823)" fill="#fff"/>
            <path id="Path_14390" data-name="Path 14390" d="M312.39,371.184a1,1,0,0,1,1.511-.6l.052.044a.945.945,0,1,1-1.564.557Z" transform="translate(-218.523 -279.061)" fill="#fff"/>
            <path id="Path_14391" data-name="Path 14391" d="M368.653,354.039a1,1,0,0,1,1.511-.6l.052.044a.945.945,0,1,1-1.563.557Z" transform="translate(-318.64 -275.28)" fill="#fff"/>
            <path id="Path_14392" data-name="Path 14392" d="M420.836,309.284a1,1,0,0,1,1.511-.6l.052.044a.945.945,0,1,1-1.564.557Z" transform="translate(-411.496 -265.409)" fill="#fff"/>
            <path id="Path_14393" data-name="Path 14393" d="M399.648,275.395a1,1,0,0,1,1.511-.6l.053.044a.945.945,0,1,1-1.564.557Z" transform="translate(-373.794 -257.936)" fill="#fff"/>
            <path id="Path_14394" data-name="Path 14394" d="M358.584,279.639a1,1,0,0,1,1.511-.6l.052.044a.945.945,0,1,1-1.564.557Z" transform="translate(-300.722 -258.872)" fill="#fff"/>
          </g>
          <g id="Group_7067" data-name="Group 7067" transform="translate(37.879)">
            <g id="Group_7053" data-name="Group 7053" transform="translate(4.415)">
              <g id="Group_7052" data-name="Group 7052" transform="translate(0)">
                <g id="Group_6921" data-name="Group 6921" transform="translate(55.276 12.96)">
                  <g id="Group_6920" data-name="Group 6920" transform="translate(0)">
                    <path id="Path_14395" data-name="Path 14395" d="M316.014,158.209c6.14,3.907,8.59,12.093,7.419,16.931-.59,2.438-1.7,4.892-1.214,7.353.418,2.127,1.947,3.829,3.091,5.67a17.085,17.085,0,0,1-21.351,24.676" transform="translate(-303.96 -158.209)" fill="#263238"/>
                  </g>
                </g>
                <g id="Group_7028" data-name="Group 7028">
                  <g id="Group_6924" data-name="Group 6924">
                    <g id="Group_6923" data-name="Group 6923">
                      <g id="Group_6922" data-name="Group 6922">
                        <path id="Path_14396" data-name="Path 14396" d="M380.773,186.49c14.934-32.846-20.589-49.348-39.973-43.873-18.217,5.145-25.986,14.211-28.983,26.395s-2.855,25.39,1.921,37c2.356,5.724,6.6,11.539,12.746,12.255" transform="translate(-309.81 -141.583)" fill="#eb741d"/>
                      </g>
                    </g>
                  </g>
                  <g id="Group_7027" data-name="Group 7027" transform="translate(13.834 10.819)">
                    <g id="Group_7026" data-name="Group 7026" transform="translate(0)">
                      <g id="Group_7025" data-name="Group 7025" transform="translate(0)">
                        <g id="Group_7024" data-name="Group 7024">
                          <g id="Group_7005" data-name="Group 7005">
                            <g id="Group_7004" data-name="Group 7004" transform="translate(0)">
                              <g id="Group_7003" data-name="Group 7003">
                                <g id="Group_6933" data-name="Group 6933" transform="translate(0)">
                                  <g id="Group_6932" data-name="Group 6932">
                                    <g id="Group_6931" data-name="Group 6931">
                                      <g id="Group_6930" data-name="Group 6930">
                                        <g id="Group_6929" data-name="Group 6929">
                                          <g id="Group_6928" data-name="Group 6928">
                                            <g id="Group_6927" data-name="Group 6927">
                                              <g id="Group_6926" data-name="Group 6926">
                                                <g id="Group_6925" data-name="Group 6925">
                                                  <path id="Path_14397" data-name="Path 14397" d="M353.844,269.767c.258-15.693.44-37.25.446-37.161,0,0,13.49-2.239,16.284-19.84,1.391-8.753.95-23.1.211-34.835-.666-10.559-7.661-23.514-18.182-22.4l-32.853,8.3a6.189,6.189,0,0,0-5.538,6.279h0l2.14,67.952" transform="translate(-314.212 -155.463)" fill="#ffbe9d"/>
                                                </g>
                                              </g>
                                            </g>
                                          </g>
                                        </g>
                                      </g>
                                    </g>
                                  </g>
                                </g>
                                <g id="Group_6947" data-name="Group 6947" transform="translate(46.224 31.214)">
                                  <g id="Group_6946" data-name="Group 6946" transform="translate(0)">
                                    <g id="Group_6945" data-name="Group 6945" transform="translate(0)">
                                      <g id="Group_6944" data-name="Group 6944">
                                        <g id="Group_6943" data-name="Group 6943">
                                          <g id="Group_6942" data-name="Group 6942">
                                            <g id="Group_6941" data-name="Group 6941">
                                              <g id="Group_6940" data-name="Group 6940">
                                                <g id="Group_6939" data-name="Group 6939">
                                                  <g id="Group_6938" data-name="Group 6938">
                                                    <g id="Group_6937" data-name="Group 6937">
                                                      <g id="Group_6936" data-name="Group 6936">
                                                        <g id="Group_6935" data-name="Group 6935">
                                                          <g id="Group_6934" data-name="Group 6934">
                                                            <path id="Path_14398" data-name="Path 14398" d="M327.113,197.511a2.242,2.242,0,0,1-2.137,2.289,2.146,2.146,0,0,1-2.337-2,2.246,2.246,0,0,1,2.135-2.29A2.147,2.147,0,0,1,327.113,197.511Z" transform="translate(-322.637 -195.508)" fill="#263238"/>
                                                          </g>
                                                        </g>
                                                      </g>
                                                    </g>
                                                  </g>
                                                </g>
                                              </g>
                                            </g>
                                          </g>
                                        </g>
                                      </g>
                                    </g>
                                  </g>
                                </g>
                                <g id="Group_6961" data-name="Group 6961" transform="translate(22.903 31.214)">
                                  <g id="Group_6960" data-name="Group 6960" transform="translate(0)">
                                    <g id="Group_6959" data-name="Group 6959" transform="translate(0)">
                                      <g id="Group_6958" data-name="Group 6958">
                                        <g id="Group_6957" data-name="Group 6957">
                                          <g id="Group_6956" data-name="Group 6956" transform="translate(0)">
                                            <g id="Group_6955" data-name="Group 6955">
                                              <g id="Group_6954" data-name="Group 6954">
                                                <g id="Group_6953" data-name="Group 6953" transform="translate(0)">
                                                  <g id="Group_6952" data-name="Group 6952">
                                                    <g id="Group_6951" data-name="Group 6951">
                                                      <g id="Group_6950" data-name="Group 6950">
                                                        <g id="Group_6949" data-name="Group 6949">
                                                          <g id="Group_6948" data-name="Group 6948">
                                                            <path id="Path_14399" data-name="Path 14399" d="M357.033,197.511A2.243,2.243,0,0,1,354.9,199.8a2.146,2.146,0,0,1-2.337-2,2.245,2.245,0,0,1,2.134-2.29A2.147,2.147,0,0,1,357.033,197.511Z" transform="translate(-352.557 -195.508)" fill="#263238"/>
                                                          </g>
                                                        </g>
                                                      </g>
                                                    </g>
                                                  </g>
                                                </g>
                                              </g>
                                            </g>
                                          </g>
                                        </g>
                                      </g>
                                    </g>
                                  </g>
                                </g>
                                <g id="Group_6972" data-name="Group 6972" transform="translate(44.208 26.887)">
                                  <g id="Group_6971" data-name="Group 6971" transform="translate(0)">
                                    <g id="Group_6970" data-name="Group 6970" transform="translate(0)">
                                      <g id="Group_6969" data-name="Group 6969">
                                        <g id="Group_6968" data-name="Group 6968">
                                          <g id="Group_6967" data-name="Group 6967">
                                            <g id="Group_6966" data-name="Group 6966">
                                              <g id="Group_6965" data-name="Group 6965">
                                                <g id="Group_6964" data-name="Group 6964">
                                                  <g id="Group_6963" data-name="Group 6963">
                                                    <g id="Group_6962" data-name="Group 6962">
                                                      <path id="Path_14400" data-name="Path 14400" d="M328.4,192.186c-.27.3-2.021-.9-4.448-.817-2.426.052-4.166,1.36-4.44,1.072-.133-.127.134-.668.891-1.259a6.2,6.2,0,0,1,3.542-1.221,5.951,5.951,0,0,1,3.553,1.017C328.265,191.526,328.536,192.049,328.4,192.186Z" transform="translate(-319.481 -189.958)" fill="#263238"/>
                                                    </g>
                                                  </g>
                                                </g>
                                              </g>
                                            </g>
                                          </g>
                                        </g>
                                      </g>
                                    </g>
                                  </g>
                                </g>
                                <g id="Group_6983" data-name="Group 6983" transform="translate(21.156 27.303)">
                                  <g id="Group_6982" data-name="Group 6982" transform="translate(0)">
                                    <g id="Group_6981" data-name="Group 6981" transform="translate(0)">
                                      <g id="Group_6980" data-name="Group 6980">
                                        <g id="Group_6979" data-name="Group 6979">
                                          <g id="Group_6978" data-name="Group 6978">
                                            <g id="Group_6977" data-name="Group 6977">
                                              <g id="Group_6976" data-name="Group 6976">
                                                <g id="Group_6975" data-name="Group 6975">
                                                  <g id="Group_6974" data-name="Group 6974">
                                                    <g id="Group_6973" data-name="Group 6973">
                                                      <path id="Path_14401" data-name="Path 14401" d="M357.972,192.884c-.282.293-1.988-.981-4.416-.984-2.426-.04-4.215,1.2-4.476.9-.129-.132.156-.662.938-1.224a6.193,6.193,0,0,1,3.585-1.088,5.956,5.956,0,0,1,3.512,1.151C357.857,192.219,358.109,192.752,357.972,192.884Z" transform="translate(-349.05 -190.491)" fill="#263238"/>
                                                    </g>
                                                  </g>
                                                </g>
                                              </g>
                                            </g>
                                          </g>
                                        </g>
                                      </g>
                                    </g>
                                  </g>
                                </g>
                                <g id="Group_6993" data-name="Group 6993" transform="translate(37.263 28.161)">
                                  <g id="Group_6992" data-name="Group 6992" transform="translate(0)">
                                    <g id="Group_6991" data-name="Group 6991" transform="translate(0)">
                                      <g id="Group_6990" data-name="Group 6990">
                                        <g id="Group_6989" data-name="Group 6989">
                                          <g id="Group_6988" data-name="Group 6988">
                                            <g id="Group_6987" data-name="Group 6987">
                                              <g id="Group_6986" data-name="Group 6986">
                                                <g id="Group_6985" data-name="Group 6985">
                                                  <g id="Group_6984" data-name="Group 6984">
                                                    <path id="Path_14402" data-name="Path 14402" d="M331.617,211.831c-.011-.138,1.5-.4,3.946-.712.62-.064,1.207-.187,1.312-.61a3.16,3.16,0,0,0-.415-1.839q-.875-2.251-1.834-4.723c-2.547-6.724-4.391-12.254-4.119-12.354s2.557,5.269,5.1,11.993c.613,1.659,1.2,3.239,1.758,4.752a3.587,3.587,0,0,1,.321,2.434,1.556,1.556,0,0,1-1.02.907,4.214,4.214,0,0,1-1.054.147C333.154,211.958,331.627,211.969,331.617,211.831Z" transform="translate(-330.48 -191.592)" fill="#263238"/>
                                                  </g>
                                                </g>
                                              </g>
                                            </g>
                                          </g>
                                        </g>
                                      </g>
                                    </g>
                                  </g>
                                </g>
                                <g id="Group_7002" data-name="Group 7002" transform="translate(16.507 70.855)">
                                  <g id="Group_7001" data-name="Group 7001" transform="translate(0)">
                                    <g id="Group_7000" data-name="Group 7000" transform="translate(0)">
                                      <g id="Group_6999" data-name="Group 6999">
                                        <g id="Group_6998" data-name="Group 6998">
                                          <g id="Group_6997" data-name="Group 6997">
                                            <g id="Group_6996" data-name="Group 6996">
                                              <g id="Group_6995" data-name="Group 6995">
                                                <g id="Group_6994" data-name="Group 6994">
                                                  <path id="Path_14403" data-name="Path 14403" d="M359.838,252.653a44.771,44.771,0,0,1-23.571-6.287s5.956,12.245,23.571,10.6Z" transform="translate(-336.267 -246.366)" fill="#eb996e"/>
                                                </g>
                                              </g>
                                            </g>
                                          </g>
                                        </g>
                                      </g>
                                    </g>
                                  </g>
                                </g>
                              </g>
                            </g>
                          </g>
                          <g id="Group_7014" data-name="Group 7014" transform="translate(19.593 24.42)">
                            <g id="Group_7013" data-name="Group 7013" transform="translate(0)">
                              <g id="Group_7012" data-name="Group 7012" transform="translate(0)">
                                <g id="Group_7011" data-name="Group 7011">
                                  <g id="Group_7010" data-name="Group 7010">
                                    <g id="Group_7009" data-name="Group 7009">
                                      <g id="Group_7008" data-name="Group 7008">
                                        <g id="Group_7007" data-name="Group 7007">
                                          <g id="Group_7006" data-name="Group 7006">
                                            <path id="Path_14404" data-name="Path 14404" d="M359.4,188.614c-.239.66-2.665.348-5.514.691-2.857.286-5.155,1.12-5.533.528-.169-.284.232-.9,1.161-1.544a9.661,9.661,0,0,1,8.417-.929C358.971,187.782,359.5,188.3,359.4,188.614Z" transform="translate(-348.311 -186.793)" fill="#263238"/>
                                          </g>
                                        </g>
                                      </g>
                                    </g>
                                  </g>
                                </g>
                              </g>
                            </g>
                          </g>
                          <g id="Group_7023" data-name="Group 7023" transform="translate(44.296 20.495)">
                            <g id="Group_7022" data-name="Group 7022" transform="translate(0)">
                              <g id="Group_7021" data-name="Group 7021" transform="translate(0)">
                                <g id="Group_7020" data-name="Group 7020">
                                  <g id="Group_7019" data-name="Group 7019">
                                    <g id="Group_7018" data-name="Group 7018">
                                      <g id="Group_7017" data-name="Group 7017">
                                        <g id="Group_7016" data-name="Group 7016">
                                          <g id="Group_7015" data-name="Group 7015">
                                            <path id="Path_14405" data-name="Path 14405" d="M328.435,184.273c-.428.551-2.1-.021-4.113-.048-2.011-.1-3.716.37-4.108-.207-.172-.281.1-.832.842-1.355a5.955,5.955,0,0,1,6.623.2C328.389,183.436,328.623,184,328.435,184.273Z" transform="translate(-320.163 -181.757)" fill="#263238"/>
                                          </g>
                                        </g>
                                      </g>
                                    </g>
                                  </g>
                                </g>
                              </g>
                            </g>
                          </g>
                        </g>
                      </g>
                    </g>
                  </g>
                </g>
                <g id="Group_7046" data-name="Group 7046" transform="translate(7.324 47.77)">
                  <g id="Group_7036" data-name="Group 7036" transform="translate(0)">
                    <g id="Group_7035" data-name="Group 7035" transform="translate(0)">
                      <g id="Group_7034" data-name="Group 7034">
                        <g id="Group_7033" data-name="Group 7033">
                          <g id="Group_7032" data-name="Group 7032">
                            <g id="Group_7031" data-name="Group 7031">
                              <g id="Group_7030" data-name="Group 7030">
                                <g id="Group_7029" data-name="Group 7029">
                                  <path id="Path_14406" data-name="Path 14406" d="M392.073,203.737c-.258-.125-9.421-4.177-9.528,6.36s10.494,8.472,10.515,8.17S392.073,203.737,392.073,203.737Z" transform="translate(-382.545 -202.869)" fill="#ffbe9d"/>
                                </g>
                              </g>
                            </g>
                          </g>
                        </g>
                      </g>
                    </g>
                  </g>
                  <g id="Group_7045" data-name="Group 7045" transform="translate(2.673 3.016)">
                    <g id="Group_7044" data-name="Group 7044" transform="translate(0)">
                      <g id="Group_7043" data-name="Group 7043">
                        <g id="Group_7042" data-name="Group 7042">
                          <g id="Group_7041" data-name="Group 7041">
                            <g id="Group_7040" data-name="Group 7040">
                              <g id="Group_7039" data-name="Group 7039">
                                <g id="Group_7038" data-name="Group 7038">
                                  <g id="Group_7037" data-name="Group 7037">
                                    <path id="Path_14407" data-name="Path 14407" d="M391.275,215.1c-.046-.034-.186.126-.5.266a1.839,1.839,0,0,1-1.373.014c-1.109-.42-2.028-2.2-2.06-4.1a6.056,6.056,0,0,1,.541-2.623,2.117,2.117,0,0,1,1.4-1.394.934.934,0,0,1,1.078.514c.138.3.069.506.125.525.029.026.228-.174.147-.61a1.171,1.171,0,0,0-.408-.665,1.388,1.388,0,0,0-1.013-.278,2.579,2.579,0,0,0-1.934,1.614,6.224,6.224,0,0,0-.666,2.931c.046,2.124,1.112,4.122,2.631,4.578a1.964,1.964,0,0,0,1.681-.263C391.253,215.35,391.31,215.115,391.275,215.1Z" transform="translate(-386.61 -206.738)" fill="#eb996e"/>
                                  </g>
                                </g>
                              </g>
                            </g>
                          </g>
                        </g>
                      </g>
                    </g>
                  </g>
                </g>
                <g id="Group_7048" data-name="Group 7048" transform="translate(7.255 5.689)">
                  <g id="Group_7047" data-name="Group 7047" transform="translate(0)">
                    <path id="Path_14408" data-name="Path 14408" d="M373.7,148.881c5.862,3.029,8.275,15.023,5.85,21.16s-8.962,9.134-15.408,10.546a38.922,38.922,0,0,1-19.123-.189c-.442,4.275-3,8.664-7.152,9.792-5.491,1.493-11.026-3.536-12.248-9.094s.609-11.282,2.418-16.678" transform="translate(-325.224 -148.881)" fill="#eb741d"/>
                  </g>
                </g>
                <g id="Group_7051" data-name="Group 7051" transform="translate(9.239 36.302)">
                  <g id="Group_7050" data-name="Group 7050" transform="translate(0)">
                    <g id="Group_7049" data-name="Group 7049">
                      <path id="Path_14409" data-name="Path 14409" d="M369.381,195.778c-.025.034.263.307.812.769a28.736,28.736,0,0,0,2.431,1.833,14.862,14.862,0,0,0,4.1,1.982,8.866,8.866,0,0,0,5.592-.082,8.669,8.669,0,0,0,4.232-3.659,11.729,11.729,0,0,0,1.517-4.3,15.559,15.559,0,0,0,.166-3.052,3.449,3.449,0,0,0-.138-1.111c-.115,0,.01,1.6-.451,4.087a12,12,0,0,1-1.569,4.081,8.322,8.322,0,0,1-3.972,3.386,8.522,8.522,0,0,1-5.226.111,15.6,15.6,0,0,1-4.016-1.805C370.7,196.67,369.443,195.691,369.381,195.778Z" transform="translate(-369.379 -188.156)" fill="#263238"/>
                    </g>
                  </g>
                </g>
              </g>
            </g>
            <g id="Group_7059" data-name="Group 7059" transform="translate(48.236 62.955)">
              <g id="Group_7055" data-name="Group 7055" transform="translate(0.648 0.499)">
                <g id="Group_7054" data-name="Group 7054" transform="translate(0)">
                  <path id="Path_14410" data-name="Path 14410" d="M345.986,225.523a10.089,10.089,0,0,1-1.309,2.566,3.407,3.407,0,0,1-2.423,1.407,3.058,3.058,0,0,1-2.587-1.411,4.886,4.886,0,0,1-.721-2.942c.041-.928.466-2.034,1.388-2.144a2.318,2.318,0,0,1,1.119.249l4.846,1.965" transform="translate(-338.939 -222.99)" fill="#eb996e"/>
                </g>
              </g>
              <g id="Group_7058" data-name="Group 7058" transform="translate(0)">
                <g id="Group_7057" data-name="Group 7057">
                  <g id="Group_7056" data-name="Group 7056">
                    <path id="Path_14411" data-name="Path 14411" d="M343.518,229.368a7,7,0,0,1-2.584-.32,3.7,3.7,0,0,1-1.954-1.775,3.89,3.89,0,0,1-.063-3.17,3.464,3.464,0,0,1,.422-.724c.192-.2.157-.193.366-.161.2.053.516.2.776.3l.8.323c1.037.42,1.976.786,2.769,1.083a8.832,8.832,0,0,0,2.638.794,8.824,8.824,0,0,0-2.4-1.357c-.762-.369-1.676-.793-2.7-1.253l-.785-.351a8.611,8.611,0,0,0-.885-.365,1.132,1.132,0,0,0-.719.021,1.33,1.33,0,0,0-.535.422,4.159,4.159,0,0,0-.545.919,4.54,4.54,0,0,0,.148,3.876,4.146,4.146,0,0,0,2.459,1.989,3.915,3.915,0,0,0,2.1.081C343.312,229.58,343.538,229.417,343.518,229.368Z" transform="translate(-337.759 -222.35)" fill="#263238"/>
                  </g>
                </g>
              </g>
            </g>
            <path id="Path_14412" data-name="Path 14412" d="M395.279,194.728c1.08-.076,9.782,1.051,9.1,17.228-.641,15.11-11.241,11.783-14.623,6.095C386.548,212.661,384.7,195.471,395.279,194.728Z" transform="translate(-385.828 -153.303)" fill="#455a64"/>
            <g id="Group_7060" data-name="Group 7060" transform="translate(4.031 21)">
              <path id="Path_14413" data-name="Path 14413" d="M391.411,190.861a2.059,2.059,0,0,0,.041-.426c.013-.315.03-.723.051-1.232.031-1.117.075-2.674.129-4.608.079-3.974.191-9.492.319-15.867l-.2.193,4.487.006-.2-.207c-.033,1.2-.067,2.475-.1,3.764-.15,6.071-.291,11.725-.408,16.457l0,.14.134.031a8.166,8.166,0,0,1,4.622,2.975,10.906,10.906,0,0,1,1.846,3.9,16.29,16.29,0,0,1,.475,2.763c.029.323.044.571.052.738a1.128,1.128,0,0,0,.025.254.825.825,0,0,0,.028-.254c.009-.168.01-.419,0-.744a14.3,14.3,0,0,0-.387-2.805,10.88,10.88,0,0,0-1.815-4.021,8.41,8.41,0,0,0-4.764-3.14l.131.17c.136-4.732.3-10.385.472-16.455.034-1.289.068-2.56.1-3.765l.005-.207h-.207l-4.487.006h-.193l0,.193c-.07,6.374-.131,11.895-.175,15.868-.006,1.935-.011,3.492-.015,4.61.005.509.01.917.013,1.233A1.98,1.98,0,0,0,391.411,190.861Z" transform="translate(-391.37 -168.525)" fill="#455a64"/>
            </g>
            <path id="Path_14414" data-name="Path 14414" d="M367.586,162.852s4.55-10.651,15.4-15.908a64.431,64.431,0,0,1,12.992-4.817s-6.327-1.5-16.566,3.053c-4.653,2.069-9.339,4.766-12.439,8.806-1.969,2.566-4.427,7.581-4.423,8.866Z" transform="translate(-358.133 -141.65)" fill="#455a64"/>
            <g id="Group_7061" data-name="Group 7061" transform="translate(8.416 69.199)">
              <path id="Path_14415" data-name="Path 14415" d="M392.062,311.337a1.82,1.82,0,0,0-.194-.213c-.129-.139-.336-.333-.588-.606a29.246,29.246,0,0,1-2.1-2.5,40.877,40.877,0,0,1-2.843-4.363c-1.017-1.769-2.072-3.854-3.221-6.184-2.3-4.659-4.96-10.307-7.712-16.778-1.379-3.234-2.783-6.673-4.18-10.293l-1.048-2.748a15.884,15.884,0,0,0-1.253-2.762,5.7,5.7,0,0,0-2.264-2.151,3.16,3.16,0,0,0-1.585-.4,1.612,1.612,0,0,0-.828.3,1.791,1.791,0,0,0-.525.7l-.026.052.013.062a2.747,2.747,0,0,0,.419,1.039,1.62,1.62,0,0,0,.973.638,3.47,3.47,0,0,0,2.175-.4,3.423,3.423,0,0,0,1.925-3.777,3.048,3.048,0,0,0-1.266-1.9,3.548,3.548,0,0,0-2.215-.631,2.445,2.445,0,0,0-2.045,1.128,1.175,1.175,0,0,0,.081,1.27,2.262,2.262,0,0,0,.988.723,3.255,3.255,0,0,0,3.736-1.059,2.758,2.758,0,0,0,.506-1.966,3.362,3.362,0,0,0-.81-1.836,2.808,2.808,0,0,0-1.755-.97,2.257,2.257,0,0,0-1.9.652,1.406,1.406,0,0,0-.373,1,1.349,1.349,0,0,0,.45.96,2.2,2.2,0,0,0,1.906.514,2.41,2.41,0,0,0,1.518-1.22,5.055,5.055,0,0,0,.571-1.8,6.4,6.4,0,0,0-.414-3.635,2.724,2.724,0,0,0-1.328-1.313,2.471,2.471,0,0,0-1.851.059,1.755,1.755,0,0,0-1.142,1.443,1.606,1.606,0,0,0,.988,1.523,1.987,1.987,0,0,0,1.794-.027,2.442,2.442,0,0,0,1.108-1.368,3.4,3.4,0,0,0,.106-1.706,7.575,7.575,0,0,0-.36-1.617,2.956,2.956,0,0,0-.945-1.377,3.779,3.779,0,0,0-1.468-.73,1.614,1.614,0,0,0-.858-.009,1.842,1.842,0,0,0-.713.454,2.076,2.076,0,0,0-.459.691,1.141,1.141,0,0,0-.027.861,1.4,1.4,0,0,0,1.394.772,2.581,2.581,0,0,0,1.464-.491,3.977,3.977,0,0,0,1.565-2.454,4.149,4.149,0,0,0-.327-2.776,3.23,3.23,0,0,0-.875-1.071A2.9,2.9,0,0,0,365,242.5a2.033,2.033,0,0,0-1.326.186,1.391,1.391,0,0,0-.716,1.105,1.951,1.951,0,0,0,1.469,1.87,2.142,2.142,0,0,0,2.119-.8,3.417,3.417,0,0,0,.8-1.995,12.432,12.432,0,0,0-.763-3.732l-.869-3.068c-.523-1.829-.931-3.254-1.214-4.241l-.326-1.1c-.076-.247-.124-.37-.124-.37s.022.131.084.382c.069.267.164.636.287,1.112.266.991.649,2.424,1.141,4.261q.376,1.388.834,3.076a12.4,12.4,0,0,1,.724,3.665,3.2,3.2,0,0,1-.757,1.852,1.9,1.9,0,0,1-1.869.706,1.7,1.7,0,0,1-1.263-1.6,1.114,1.114,0,0,1,.581-.882,1.754,1.754,0,0,1,1.14-.147,2.621,2.621,0,0,1,1.116.488,2.923,2.923,0,0,1,.786.975,3.845,3.845,0,0,1,.289,2.572,3.67,3.67,0,0,1-1.444,2.252,2.251,2.251,0,0,1-1.281.428,1.076,1.076,0,0,1-1.079-.564,1.208,1.208,0,0,1,.414-1.187,1.519,1.519,0,0,1,.575-.368,1.286,1.286,0,0,1,.676.019,2.944,2.944,0,0,1,2.157,1.89,7.286,7.286,0,0,1,.337,1.541,3.017,3.017,0,0,1-.093,1.54,2.071,2.071,0,0,1-.939,1.164,1.614,1.614,0,0,1-1.457.013,1.231,1.231,0,0,1-.772-1.165,1.383,1.383,0,0,1,.917-1.113,2.1,2.1,0,0,1,1.557-.052,2.355,2.355,0,0,1,1.126,1.132,6.03,6.03,0,0,1,.369,3.4,4.653,4.653,0,0,1-.524,1.656,2.025,2.025,0,0,1-1.256,1.029,1.816,1.816,0,0,1-1.55-.415.971.971,0,0,1-.053-1.4,1.867,1.867,0,0,1,1.553-.518,2.412,2.412,0,0,1,1.5.836,2.686,2.686,0,0,1,.281,3.3,2.857,2.857,0,0,1-3.257.924,1.883,1.883,0,0,1-.811-.583.761.761,0,0,1-.051-.844,2.055,2.055,0,0,1,1.711-.913,2.922,2.922,0,0,1,3.061,2.211,3.019,3.019,0,0,1-1.7,3.336,3.1,3.1,0,0,1-1.911.371,1.531,1.531,0,0,1-1.093-1.362l-.012.113a1.163,1.163,0,0,1,1.016-.762,2.794,2.794,0,0,1,1.38.359,5.309,5.309,0,0,1,2.113,2.006,15.534,15.534,0,0,1,1.225,2.695l1.055,2.748c1.407,3.621,2.822,7.06,4.213,10.293,2.777,6.468,5.468,12.109,7.8,16.756,1.165,2.324,2.239,4.4,3.277,6.17a39.364,39.364,0,0,0,2.906,4.347A20.805,20.805,0,0,0,392.062,311.337Z" transform="translate(-362.949 -230.361)" fill="#191919"/>
            </g>
            <g id="Group_7062" data-name="Group 7062" transform="translate(0 10.225)">
              <path id="Path_14416" data-name="Path 14416" d="M329.754,178.315a10.118,10.118,0,0,1,.709-2.882,11.319,11.319,0,0,1,5.6-5.6,15.016,15.016,0,0,1,5.393-1.319,25.418,25.418,0,0,1,6.4.488c4.469.822,9.16,2.751,14.414,3.543a29.267,29.267,0,0,0,7.719-.009,31.1,31.1,0,0,0,6.937-1.881,30.615,30.615,0,0,0,10.1-6.673,27.183,27.183,0,0,0,4.895-6.546,8.781,8.781,0,0,0,.574-1.149l.379-.863.224-.532a.669.669,0,0,0,.063-.187.765.765,0,0,0-.1.171l-.261.516-.412.843a9.149,9.149,0,0,1-.6,1.126,28.191,28.191,0,0,1-4.957,6.418,30.4,30.4,0,0,1-16.894,8.364,29.076,29.076,0,0,1-7.6,0c-5.184-.778-9.884-2.695-14.4-3.508a25.484,25.484,0,0,0-6.489-.457,15.191,15.191,0,0,0-5.494,1.4,11.347,11.347,0,0,0-5.617,5.8,8.434,8.434,0,0,0-.542,2.165l-.026.58A.731.731,0,0,0,329.754,178.315Z" transform="translate(-329.747 -154.701)" fill="#455a64"/>
            </g>
            <g id="Group_7063" data-name="Group 7063" transform="translate(11.77 8.052)">
              <path id="Path_14417" data-name="Path 14417" d="M328.905,160.9a2.988,2.988,0,0,0,.559.1c.368.05.91.13,1.6.251,1.39.231,3.379.674,5.827,1.283a61.66,61.66,0,0,0,8.716,1.688,43.813,43.813,0,0,0,10.87-.235,46.1,46.1,0,0,0,10.5-2.824,44.96,44.96,0,0,0,7.883-4.093c1.046-.71,1.986-1.366,2.775-1.988.774-.641,1.469-1.16,1.981-1.647l1.186-1.115a3,3,0,0,0,.394-.408,3.011,3.011,0,0,0-.45.348l-1.233,1.055c-.526.468-1.232.965-2.015,1.586-.8.6-1.744,1.237-2.794,1.928a47.035,47.035,0,0,1-18.286,6.756,44.527,44.527,0,0,1-10.774.266,65.08,65.08,0,0,1-8.688-1.6c-2.458-.574-4.467-.976-5.869-1.16-.7-.1-1.247-.153-1.618-.176A3.007,3.007,0,0,0,328.905,160.9Z" transform="translate(-328.905 -151.912)" fill="#455a64"/>
            </g>
            <g id="Group_7064" data-name="Group 7064" transform="translate(9.256 42.03)">
              <path id="Path_14418" data-name="Path 14418" d="M392.514,222.742a.956.956,0,0,0,.306-.09,4.843,4.843,0,0,0,.808-.418,7.1,7.1,0,0,0,2.281-2.433,11.689,11.689,0,0,0,1.4-4.744,34.579,34.579,0,0,0,.007-6.046,36.774,36.774,0,0,0-1-5.961,17.112,17.112,0,0,0-1.74-4.628,7.129,7.129,0,0,0-2.295-2.42,4.75,4.75,0,0,0-.812-.41.885.885,0,0,0-.306-.085c-.016.035.4.181,1.031.627a7.442,7.442,0,0,1,2.134,2.434,17.7,17.7,0,0,1,1.625,4.573,39.006,39.006,0,0,1,.96,5.9,36.419,36.419,0,0,1,.025,5.975,11.779,11.779,0,0,1-1.277,4.639,7.381,7.381,0,0,1-2.12,2.444C392.912,222.558,392.5,222.7,392.514,222.742Z" transform="translate(-391.16 -195.504)" fill="#263238"/>
            </g>
            <g id="Group_7066" data-name="Group 7066" transform="translate(4.889 56.366)">
              <rect id="Rectangle_8846" data-name="Rectangle 8846" width="12.593" height="4.746" rx="2.373" transform="translate(50.036 17.137) rotate(-168.897)" fill="#455a64"/>
              <path id="Path_14419" data-name="Path 14419" d="M393.72,225.579l-36.982-11.6a1.744,1.744,0,0,0-2.182,1.132h0a1.743,1.743,0,0,0,1.206,2.216l37.817,10.217Z" transform="translate(-354.471 -213.897)" fill="#455a64"/>
              <g id="Group_7065" data-name="Group 7065" transform="translate(0.174 0.033)">
                <path id="Path_14420" data-name="Path 14420" d="M392.7,220.489a7.938,7.938,0,0,0-1.225-.431l-3.381-1.03c-1.419-.439-3.161-.9-5-1.5a3.367,3.367,0,0,1-1.211-.745,1.859,1.859,0,0,1-.521-1.287,1.118,1.118,0,0,1,.764-1.058,2.835,2.835,0,0,1,1.546.047l11.088,3.567,3.377,1.044a7.842,7.842,0,0,0,1.256.33,8.026,8.026,0,0,0-1.206-.48l-3.337-1.165c-2.832-.962-6.714-2.292-11.078-3.688a3.2,3.2,0,0,0-1.78-.034,1.523,1.523,0,0,0-1.027,1.43,2.234,2.234,0,0,0,.641,1.567,3.71,3.71,0,0,0,1.354.823c1.911.606,3.616,1.023,5.059,1.431l3.417.906A7.919,7.919,0,0,0,392.7,220.489Z" transform="translate(-380.959 -213.939)" fill="#263238"/>
              </g>
            </g>
            <path id="Path_14421" data-name="Path 14421" d="M307.392,186c-1.267,4.444,3.251,8.255,4.841,12.6,1.538,4.2.228,8.9-1.664,12.944s-4.385,7.888-5.355,12.25c-2.39,10.757,7.336,22.344,5.483,33.206a70.269,70.269,0,0,1-3.649,11.852,15.672,15.672,0,0,0,0,11.017c2.1,6.221,5.671,9.154,8.184,15.22,1.285,3.1,1.184,6.576,1.119,9.933s-.041,6.858,1.454,9.865,4.914,5.332,8.156,4.461a11.957,11.957,0,0,1-14.283,2.719c-4.264-2.274-6.65-6.892-8.691-11.273-9.885-21.211-15.113-23-14.842-46.4.018-1.506.3-24.943.3-24.943a23.132,23.132,0,0,0,5.835-2.459c11.041-7.62,11.443-21.2,11.356-31.726" transform="translate(-230.117 -151.378)" fill="#eb741d"/>
          </g>
          <g id="Group_7072" data-name="Group 7072" transform="translate(53.262 58.781)">
            <path id="Path_14422" data-name="Path 14422" d="M345.842,277.083v8.83s6.793,34.643,8.831,53.889,2.382,24.325,2.382,24.325-4.873,7.6-15.062-5.3-12-14.945-16.076-15.171c0,0,4.982-54.116,4.755-56.155a8.189,8.189,0,0,0-1.811-3.849Z" transform="translate(-306.044 -230.246)" fill="#ffbe9d"/>
            <g id="Group_7071" data-name="Group 7071" transform="translate(0)">
              <path id="Path_14423" data-name="Path 14423" d="M366.568,243.958s11.095,14.718,12,16.756,1.359,3.17,1.359,3.17l-16.982,6.566-16.529-18.115L340.3,236.26l1.811-19.02s3.623-.226,4.3,2.944a23.988,23.988,0,0,1,.453,6.113l5.073-4.076,8.173-2.49s1.924,3.17-1.245,4.755-4.076,1.585-4.076,1.585l-2.852,4.982,1.246,5.581,5.78-5.42a3.313,3.313,0,0,1,4.214-.263l3.734,2.715,3.5-1.563,6.792,5.969,2.717,2.49a4.163,4.163,0,0,1-5.434,1.811l-3.623-1.585Z" transform="translate(-340.129 -217.048)" fill="#ffbe9d"/>
              <g id="Group_7068" data-name="Group 7068">
                <path id="Path_14424" data-name="Path 14424" d="M379.823,266.811a4.487,4.487,0,0,0,0-.472c-.011-.312-.037-.776-.111-1.381a16.6,16.6,0,0,0-.425-2.22,9.92,9.92,0,0,0-1.192-2.851c-2.537-3.9-6.537-9.326-11.522-16.067l-.029.2,4.308-3.161-.152.017,2.239.984a15.091,15.091,0,0,0,2.386.929,3.873,3.873,0,0,0,2.651-.3,4.894,4.894,0,0,0,1.992-1.9l.066-.111-.1-.1c-2.921-2.741-6.167-5.515-9.5-8.474l-.1-.089-.116.069-3.016,1.781.2,0-3.529-2.322c-.61-.391-1.168-.79-1.832-1.183a2.2,2.2,0,0,0-2.27.2l-6.873,5.807.323.108-1.189-5.329-.022.144,2.853-4.981-.175.1a6.108,6.108,0,0,0,1.407-.379c.447-.164.89-.352,1.333-.55s.882-.409,1.323-.627c.22-.109.441-.252.662-.378a4.034,4.034,0,0,0,.587-.514,2.886,2.886,0,0,0,.786-2.081,4.593,4.593,0,0,0-.6-2.119l-.076-.137-.157.048-8.172,2.492-.037.012-.03.024-5.072,4.077.322.17a24.074,24.074,0,0,0-.431-6.028,3.656,3.656,0,0,0-1.652-2.508A5.24,5.24,0,0,0,342,217l-.163,0-.016.17c-.637,6.761-1.237,13.132-1.791,19.022l0,.04.014.037,6.143,16.065.009.026.018.019,12.835,13.971,3.481,3.76.91.969c.207.216.32.32.32.32s-.094-.122-.29-.348l-.882-.995-3.427-3.811-12.741-14.056.027.044-6.084-16.087.01.076c.567-5.889,1.181-12.258,1.832-19.017l-.178.172a4.874,4.874,0,0,1,2.651.673,3.257,3.257,0,0,1,1.476,2.259,23.761,23.761,0,0,1,.418,5.918l-.023.448.346-.277,5.075-4.074-.068.036,8.173-2.49-.232-.088a4.2,4.2,0,0,1,.543,1.915,2.473,2.473,0,0,1-.677,1.8,3.632,3.632,0,0,1-.519.455c-.206.115-.4.242-.613.349-.436.215-.871.426-1.308.62a11.329,11.329,0,0,1-2.574.894l-.129.019-.047.082-2.85,4.982-.039.068.017.076c.41,1.834.817,3.651,1.192,5.328l.072.322.252-.214,6.846-5.8a1.811,1.811,0,0,1,1.868-.166c.581.345,1.2.777,1.791,1.157l3.533,2.317.1.065.1-.06,3.012-1.787-.217-.02c3.339,2.951,6.593,5.717,9.517,8.446l-.035-.206a4.583,4.583,0,0,1-1.841,1.764,3.55,3.55,0,0,1-2.433.281,14.911,14.911,0,0,1-2.328-.9l-2.243-.977-.081-.035-.071.052-4.3,3.179-.115.086.085.115c5.011,6.715,9.05,12.119,11.617,15.98a9.887,9.887,0,0,1,1.209,2.8,17.281,17.281,0,0,1,.46,2.2c.087.6.126,1.063.15,1.373S379.823,266.811,379.823,266.811Z" transform="translate(-340.025 -216.995)" fill="#eb996e"/>
              </g>
              <g id="Group_7069" data-name="Group 7069" transform="translate(18.121 14.964)">
                <path id="Path_14425" data-name="Path 14425" d="M352.672,251.547c.081-.012-.219-1.2-.344-3.13a7.067,7.067,0,0,1,.536-3.272,8.645,8.645,0,0,1,2.7-3.038,67.28,67.28,0,0,1,6.286-4.28l1.991-1.172a3.6,3.6,0,0,0,.716-.46,3.305,3.305,0,0,0-.79.32c-.5.232-1.2.59-2.06,1.063a51.5,51.5,0,0,0-6.392,4.209,8.735,8.735,0,0,0-2.8,3.2,7.1,7.1,0,0,0-.481,3.444,15.392,15.392,0,0,0,.383,2.3A3.3,3.3,0,0,0,352.672,251.547Z" transform="translate(-352.009 -236.192)" fill="#eb996e"/>
              </g>
              <g id="Group_7070" data-name="Group 7070" transform="translate(5.856 9.355)">
                <path id="Path_14426" data-name="Path 14426" d="M383.386,242.9a15.688,15.688,0,0,0-.288-2.037,31.1,31.1,0,0,1,.083-9.831A15.744,15.744,0,0,0,383.5,229a7.78,7.78,0,0,0-.6,1.978,24.236,24.236,0,0,0-.084,9.933A7.838,7.838,0,0,0,383.386,242.9Z" transform="translate(-382.342 -228.997)" fill="#eb996e"/>
              </g>
            </g>
          </g>
        </g>
      </g>
      <g id="Speech_Bubble" data-name="Speech Bubble" transform="translate(153.274 37.498)">
        <g id="Group_7091" data-name="Group 7091">
          <g id="Group_7077" data-name="Group 7077">
            <g id="Group_7076" data-name="Group 7076">
              <g id="Group_7075" data-name="Group 7075">
                <path id="Path_14427" data-name="Path 14427" d="M183.979,152.17l8.125-14.319a38.365,38.365,0,1,1,9.189,10.222l.013.017Z" transform="translate(-183.979 -79.338)" fill="#fff"/>
                <g id="Group_7074" data-name="Group 7074">
                  <path id="Path_14428" data-name="Path 14428" d="M183.765,152.127l17.35-3.981.153-.035-.1-.125-.013-.017-.142.142a39.214,39.214,0,0,0,7.876,4.745,38.417,38.417,0,0,0,10.5,3,34.414,34.414,0,0,0,6.063.3c1.043-.059,2.1-.084,3.175-.175l3.236-.489a38.636,38.636,0,0,0,23.923-15.362,38.171,38.171,0,0,0,6.469-14.79,39.033,39.033,0,0,0-.453-17.03A37.769,37.769,0,0,0,253.6,92.564l-1.564-1.72c-.514-.578-1.127-1.055-1.684-1.586-.583-.5-1.109-1.07-1.736-1.514l-1.837-1.374a16.151,16.151,0,0,0-1.9-1.258l-1.942-1.179-2.033-.988a17.9,17.9,0,0,0-2.053-.912,39.051,39.051,0,0,0-17.16-2.638,37.766,37.766,0,0,0-15.751,4.653,38.849,38.849,0,0,0-18.176,22.36,41.383,41.383,0,0,0-1.667,12.453,38.075,38.075,0,0,0,1.872,10.753,38.863,38.863,0,0,0,3.837,8.243l0-.1-8.04,14.367,8.209-14.271.029-.05-.03-.049a38.885,38.885,0,0,1-3.776-8.215,37.99,37.99,0,0,1-1.819-10.687,41.2,41.2,0,0,1,1.689-12.353A38.557,38.557,0,0,1,206.12,84.375a37.438,37.438,0,0,1,15.6-4.59A38.717,38.717,0,0,1,238.7,82.406a17.517,17.517,0,0,1,2.03.9l2.012.977,1.921,1.168a15.912,15.912,0,0,1,1.882,1.246l1.818,1.359c.62.439,1.14,1,1.717,1.5.551.525,1.158,1,1.666,1.57l1.546,1.7a37.4,37.4,0,0,1,8.123,15.576,38.683,38.683,0,0,1,.459,16.855,37.835,37.835,0,0,1-6.389,14.649,38.338,38.338,0,0,1-23.68,15.266l-3.207.493c-1.062.092-2.115.12-3.15.182a34.322,34.322,0,0,1-6.017-.284,38.258,38.258,0,0,1-10.438-2.937,39.244,39.244,0,0,1-7.853-4.68l-.613-.468.47.61.013.017.057-.16Z" transform="translate(-183.765 -79.295)" fill="#263238"/>
                </g>
              </g>
            </g>
          </g>
          <g id="Group_7090" data-name="Group 7090" transform="translate(23.78 35.344)">
            <g id="Group_7081" data-name="Group 7081" transform="translate(25.275 0.001)">
              <g id="Group_7080" data-name="Group 7080" transform="translate(0)">
                <g id="Group_7079" data-name="Group 7079" transform="translate(0)">
                  <g id="Group_7078" data-name="Group 7078">
                    <path id="Path_14429" data-name="Path 14429" d="M214.488,127.749a3.11,3.11,0,1,0,3.109-3.109A3.11,3.11,0,0,0,214.488,127.749Z" transform="translate(-214.488 -124.64)" fill="#263238"/>
                  </g>
                </g>
              </g>
            </g>
            <g id="Group_7085" data-name="Group 7085" transform="translate(12.83 0.001)">
              <g id="Group_7084" data-name="Group 7084" transform="translate(0)">
                <g id="Group_7083" data-name="Group 7083" transform="translate(0)">
                  <g id="Group_7082" data-name="Group 7082">
                    <path id="Path_14430" data-name="Path 14430" d="M230.454,127.749a3.11,3.11,0,1,0,3.109-3.109A3.11,3.11,0,0,0,230.454,127.749Z" transform="translate(-230.454 -124.64)" fill="#263238"/>
                  </g>
                </g>
              </g>
            </g>
            <g id="Group_7089" data-name="Group 7089" transform="translate(0)">
              <g id="Group_7088" data-name="Group 7088" transform="translate(0)">
                <g id="Group_7087" data-name="Group 7087">
                  <g id="Group_7086" data-name="Group 7086">
                    <path id="Path_14431" data-name="Path 14431" d="M247.33,126.195a3.11,3.11,0,1,0,4.248-1.139A3.109,3.109,0,0,0,247.33,126.195Z" transform="translate(-246.913 -124.639)" fill="#263238"/>
                  </g>
                </g>
              </g>
            </g>
          </g>
        </g>
      </g>
      <g id="Table" transform="translate(0 320.12)">
        <g id="Group_7092" data-name="Group 7092">
          <path id="Path_14432" data-name="Path 14432" d="M27.956,442.084c0,.112,79.239.2,176.963.2,97.758,0,176.98-.09,176.98-.2s-79.222-.2-176.98-.2C107.195,441.881,27.956,441.972,27.956,442.084Z" transform="translate(-27.956 -441.881)" fill="#263238"/>
        </g>
      </g>
      <g id="Device" transform="translate(66.404 125.903)">
        <g id="Group_7096" data-name="Group 7096" transform="translate(0 185.041)">
          <g id="Group_7093" data-name="Group 7093" transform="translate(0 0.143)">
            <path id="Path_14433" data-name="Path 14433" d="M387.3,439.718a20.915,20.915,0,0,0-16.671-9.414c-11.385-.387-17.077,9.414-17.077,9.414Z" transform="translate(-353.555 -430.293)" fill="#455a64"/>
          </g>
          <g id="Group_7095" data-name="Group 7095" transform="translate(11.843)">
            <g id="Group_7094" data-name="Group 7094" transform="translate(0)">
              <path id="Path_14434" data-name="Path 14434" d="M373.546,439.4a14.311,14.311,0,0,0,.334-1.7,10.935,10.935,0,0,1,4.512-6.642,14.35,14.35,0,0,0,1.457-.936,3.961,3.961,0,0,0-1.643.638,9.669,9.669,0,0,0-4.671,6.876A3.963,3.963,0,0,0,373.546,439.4Z" transform="translate(-373.458 -430.109)" fill="#263238"/>
            </g>
          </g>
        </g>
        <g id="Group_7097" data-name="Group 7097" transform="translate(40.796 189.825)">
          <path id="Path_14435" data-name="Path 14435" d="M208.951,440.618l0-.072a4.371,4.371,0,0,1,4.37-4.3h96.921a4.372,4.372,0,0,1,4.372,4.371H208.951Z" transform="translate(-208.951 -436.247)" fill="#455a64"/>
        </g>
        <g id="Group_7103" data-name="Group 7103" transform="translate(126.928)">
          <path id="Path_14436" data-name="Path 14436" d="M205.884,217.134c0,2.04-1.528,123.763-1.528,123.763L113.95,362.649h-7.477l4.759-169.936h6.8Z" transform="translate(-106.473 -192.713)" fill="#263238"/>
          <path id="Path_14437" data-name="Path 14437" d="M133.2,376.287l28.019,51.355h-25.61c4.58-.458-40.554,0-40.554,0l40.554-10.753-12.68-28.8,1.082-11.8Z" transform="translate(-52.908 -233.199)" fill="#263238"/>
          <path id="Path_14438" data-name="Path 14438" d="M155.8,360.62l3.035-95.713-27.529-2.64-3.394,102.2,9.834.5Z" transform="translate(-76.133 -208.053)" fill="#263238"/>
          <g id="Group_7098" data-name="Group 7098" transform="translate(47.736 68.408)">
            <path id="Path_14439" data-name="Path 14439" d="M95.249,372.271s.012-.15.017-.445.009-.742.016-1.313c.008-1.167.018-2.874.032-5.085.013-4.448.033-10.915.057-19.038.018-16.269.043-39.163.072-65.712l-.194.194,32.483.009-.2-.2V285.1c.012,25.889.023,49.986.033,70.061v.044l.021.037L147.9,392.491l5.689,10.375c.656,1.186,1.161,2.1,1.507,2.722s.532.924.532.924-.157-.327-.486-.949l-1.463-2.746-5.607-10.42-20.192-37.321.02.081c.009-20.075.021-44.172.034-70.061,0-1.513,0-3.02,0-4.416v-.2h-.2l-32.483.009h-.194v.195c.029,26.548.055,49.443.072,65.712.023,8.123.043,14.589.056,19.038.014,2.211.025,3.918.032,5.085.007.571.012,1.007.016,1.313S95.249,372.271,95.249,372.271Z" transform="translate(-95.055 -280.476)" fill="#455a64"/>
          </g>
          <g id="Group_7099" data-name="Group 7099" transform="translate(70.018 154.888)">
            <path id="Path_14440" data-name="Path 14440" d="M121.359,391.425c-.1.046,3.8,9.06,8.707,20.131s8.977,20.013,9.079,19.968-3.8-9.057-8.708-20.133S121.462,391.38,121.359,391.425Z" transform="translate(-121.357 -391.425)" fill="#455a64"/>
          </g>
          <g id="Group_7100" data-name="Group 7100" transform="translate(7.424 0.436)">
            <path id="Path_14441" data-name="Path 14441" d="M219.225,362.773s.014-.148.023-.438.015-.732.026-1.285c.013-1.146.034-2.808.059-4.939.032-4.29.129-10.5.28-18.165.292-15.338.984-36.519,1.833-59.912s1.5-44.588,1.715-59.93c.115-7.671.168-13.878.151-18.168-.008-2.133-.013-3.794-.017-4.94q-.009-.828-.015-1.285c-.005-.289-.019-.437-.019-.437s-.015.148-.023.437q-.009.457-.026,1.285c-.013,1.146-.034,2.807-.059,4.939-.032,4.289-.129,10.5-.28,18.165-.292,15.337-.984,36.521-1.833,59.921s-1.5,44.578-1.715,59.92c-.115,7.671-.168,13.879-.151,18.169.008,2.133.013,3.8.017,4.941.006.553.011.98.015,1.285S219.225,362.773,219.225,362.773Z" transform="translate(-219.171 -193.273)" fill="#455a64"/>
          </g>
          <g id="Group_7101" data-name="Group 7101" transform="translate(52.658 67.903)">
            <path id="Path_14442" data-name="Path 14442" d="M166.136,279.829c-.112,0-.2,20.357-.2,45.464s.091,45.468.2,45.468.2-20.353.2-45.468S166.249,279.829,166.136,279.829Z" transform="translate(-165.933 -279.829)" fill="#455a64"/>
          </g>
          <g id="Group_7102" data-name="Group 7102" transform="translate(76.436 137.487)">
            <path id="Path_14443" data-name="Path 14443" d="M122.989,418.042a4,4,0,0,0,.389-.542l.447-.676a7.462,7.462,0,0,0,.561-.952,23.864,23.864,0,0,0,2.472-6.586,32.421,32.421,0,0,0,.483-10.42,41.482,41.482,0,0,0-3.378-12.319,25.528,25.528,0,0,0-3.534-5.622,14.707,14.707,0,0,0-1.033-1.217c-.358-.387-.7-.779-1.062-1.15-.751-.709-1.455-1.437-2.228-2.052a36.13,36.13,0,0,0-4.528-3.282c-.769-.422-1.493-.864-2.224-1.221-.741-.335-1.425-.719-2.128-.971a24.477,24.477,0,0,0-6.8-1.811,13.989,13.989,0,0,0-1.911-.116,4.066,4.066,0,0,0-.667.008,4.161,4.161,0,0,0,.664.074,17.534,17.534,0,0,1,1.894.191,25.624,25.624,0,0,1,6.706,1.919c.693.257,1.366.646,2.1.985.72.361,1.433.806,2.191,1.229a36.556,36.556,0,0,1,4.461,3.279c.762.612,1.454,1.335,2.194,2.039.355.366.693.756,1.046,1.14a14.624,14.624,0,0,1,1.016,1.2,25.4,25.4,0,0,1,3.475,5.542,41.811,41.811,0,0,1,3.375,12.191,32.793,32.793,0,0,1-.391,10.318,24.968,24.968,0,0,1-2.331,6.572,7.9,7.9,0,0,1-.525.965l-.412.694A4.1,4.1,0,0,0,122.989,418.042Z" transform="translate(-97.85 -369.101)" fill="#455a64"/>
          </g>
        </g>
      </g>
    </g>
  </g>
</svg>
