<svg xmlns="http://www.w3.org/2000/svg" width="98" height="97" viewBox="0 0 98 97">
  <g id="Group_3001" data-name="Group 3001" transform="translate(0.401 -0.036)">
    <ellipse id="Ellipse_96" data-name="Ellipse 96" cx="49" cy="48.5" rx="49" ry="48.5" transform="translate(-0.401 0.036)" fill="#eb741d"/>
    <g id="mobile" transform="translate(18.853 22.767)">
      <path id="Vector" d="M30.465,0H9.358C2.489,0,0,2.489,0,9.483V40.3c0,6.994,2.489,9.483,9.358,9.483H30.44c6.894,0,9.383-2.489,9.383-9.483V9.483C39.823,2.489,37.334,0,30.465,0ZM19.911,43.059A4.356,4.356,0,1,1,24.267,38.7,4.377,4.377,0,0,1,19.911,43.059Zm4.978-32.481H14.934a1.867,1.867,0,1,1,0-3.733h9.956a1.867,1.867,0,1,1,0,3.733Z" transform="translate(9.956 4.978)" fill="#fff"/>
      <path id="Vector-2" data-name="Vector" d="M0,0H59.734V59.734H0Z" transform="translate(59.734 59.734) rotate(180)" fill="none" opacity="0"/>
      <g id="Group_3051" data-name="Group 3051" transform="translate(34.941 7.524)">
        <g id="Path_9935" data-name="Path 9935" transform="translate(-136.999 -187.797)" fill="#fff">
          <path d="M 146.4965057373047 199.6131439208984 C 145.2180023193359 199.6131439208984 144.1778564453125 198.5730133056641 144.1778564453125 197.2945098876953 C 144.1778564453125 194.3940277099609 141.8181762695312 192.0343170166016 138.9177093505859 192.0343170166016 C 137.63916015625 192.0343170166016 136.5989990234375 190.9941864013672 136.5989990234375 189.7156829833984 C 136.5989990234375 188.4371643066406 137.63916015625 187.3970184326172 138.9177093505859 187.3970184326172 C 142.6226501464844 187.3970184326172 145.9893493652344 189.4444885253906 147.7039337158203 192.7404327392578 C 147.9214935302734 193.1585845947266 147.7582702636719 193.6758422851562 147.340087890625 193.8934326171875 C 147.2187194824219 193.9566192626953 147.0823974609375 193.9900360107422 146.9459228515625 193.9900360107422 C 146.6255493164062 193.9900360107422 146.3347473144531 193.8135681152344 146.1870422363281 193.5294799804688 C 144.7679290771484 190.8015441894531 141.9824981689453 189.1068572998047 138.9177703857422 189.1068572998047 C 138.5820465087891 189.1068572998047 138.3089294433594 189.3799743652344 138.3089294433594 189.7156829833984 C 138.3089294433594 190.0513458251953 138.5820465087891 190.3244476318359 138.9177703857422 190.3244476318359 C 142.7610626220703 190.3244476318359 145.8878173828125 193.4512023925781 145.8878173828125 197.2945098876953 C 145.8878173828125 197.6301879882812 146.1609039306641 197.9032745361328 146.49658203125 197.9032745361328 C 146.832275390625 197.9032745361328 147.1053771972656 197.6301879882812 147.1053771972656 197.2945098876953 C 147.1053771972656 196.6319427490234 147.0256652832031 195.9725952148438 146.8684539794922 195.3348236083984 C 146.8137664794922 195.1131439208984 146.8487091064453 194.8833770751953 146.9668731689453 194.6879119873047 C 147.0850219726562 194.4924774169922 147.272216796875 194.3547515869141 147.4939575195312 194.3001098632812 C 147.5607147216797 194.2835388183594 147.6299285888672 194.2750549316406 147.6990356445312 194.2750549316406 C 148.0931396484375 194.2750549316406 148.4342956542969 194.5425720214844 148.5286560058594 194.9255981445312 C 148.7187957763672 195.6969451904297 148.8152008056641 196.4939727783203 148.8152008056641 197.2945098876953 C 148.8152008056641 198.5730133056641 147.7750396728516 199.6131439208984 146.4965057373047 199.6131439208984 Z" stroke="none"/>
          <path d="M 146.4965057373047 199.2131500244141 C 147.5544586181641 199.2131500244141 148.4152069091797 198.3524627685547 148.4152069091797 197.2945098876953 C 148.4152069091797 196.5261993408203 148.3227081298828 195.7614288330078 148.1402587890625 195.0212860107422 C 148.0801544189453 194.7772827148438 147.8331909179688 194.6280517578125 147.5896606445312 194.6884918212891 C 147.3456878662109 194.7486114501953 147.1966400146484 194.9951324462891 147.2568206787109 195.2390899658203 C 147.4217224121094 195.9080352783203 147.5053863525391 196.5995330810547 147.5053863525391 197.2945098876953 C 147.5053863525391 197.8507537841797 147.0528106689453 198.3032684326172 146.49658203125 198.3032684326172 C 145.9403381347656 198.3032684326172 145.4878082275391 197.8507537841797 145.4878082275391 197.2945098876953 C 145.4878082275391 193.6717987060547 142.5405578613281 190.7244415283203 138.9177703857422 190.7244415283203 C 138.3615112304688 190.7244415283203 137.908935546875 190.2719573974609 137.908935546875 189.7156829833984 C 137.908935546875 189.1594696044922 138.3615112304688 188.7068634033203 138.9177703857422 188.7068634033203 C 142.1322631835938 188.7068634033203 145.0536651611328 190.4840545654297 146.5419311523438 193.3449554443359 C 146.6578521728516 193.56787109375 146.9327239990234 193.6545867919922 147.1554565429688 193.5385894775391 C 147.3783874511719 193.4225921630859 147.4650421142578 193.1479339599609 147.3490753173828 192.9250335693359 C 145.7035827636719 189.7619171142578 142.4728393554688 187.7970123291016 138.9177093505859 187.7970123291016 C 137.8597564697266 187.7970123291016 136.9989929199219 188.6576995849609 136.9989929199219 189.7156829833984 C 136.9989929199219 190.7736358642578 137.8597106933594 191.6343231201172 138.9177093505859 191.6343231201172 C 142.0387725830078 191.6343231201172 144.5778656005859 194.1734466552734 144.5778656005859 197.2945098876953 C 144.5778656005859 198.3524627685547 145.4385833740234 199.2131500244141 146.4965057373047 199.2131500244141 M 146.4965057373047 200.0131530761719 C 144.9974365234375 200.0131530761719 143.7778625488281 198.7935638427734 143.7778625488281 197.2945098876953 C 143.7778625488281 194.6145935058594 141.5976104736328 192.434326171875 138.9177093505859 192.434326171875 C 137.4186096191406 192.434326171875 136.1989898681641 191.2147369384766 136.1989898681641 189.7156829833984 C 136.1989898681641 188.2165985107422 137.4186096191406 186.9970092773438 138.9177093505859 186.9970092773438 C 142.7724151611328 186.9970092773438 146.2750701904297 189.1270141601562 148.0587768554688 192.5558319091797 C 148.2905731201172 193.0013427734375 148.2279052734375 193.5234832763672 147.94140625 193.8984375 C 148.4133758544922 193.9906768798828 148.7983245849609 194.3480224609375 148.9170379638672 194.8299407958984 C 149.1148681640625 195.6324920654297 149.2151947021484 196.4617462158203 149.2151947021484 197.2945098876953 C 149.2151947021484 198.7935638427734 147.99560546875 200.0131530761719 146.4965057373047 200.0131530761719 Z M 138.9177703857422 189.5068664550781 C 138.8026275634766 189.5068664550781 138.7089385986328 189.6005401611328 138.7089385986328 189.7156829833984 C 138.7089385986328 189.8307952880859 138.8026275634766 189.9244384765625 138.9177703857422 189.9244384765625 C 142.9816284179688 189.9244384765625 146.2878112792969 193.2306365966797 146.2878112792969 197.2945098876953 C 146.2878112792969 197.4096221923828 146.3814697265625 197.5032653808594 146.49658203125 197.5032653808594 C 146.6117095947266 197.5032653808594 146.7053833007812 197.4096221923828 146.7053833007812 197.2945098876953 C 146.7053833007812 196.6641693115234 146.6295776367188 196.0370483398438 146.4800720214844 195.4305725097656 C 146.3998107910156 195.1051788330078 146.4511108398438 194.7678985595703 146.6245574951172 194.4809722900391 C 146.6486358642578 194.441162109375 146.6746673583984 194.4029541015625 146.7025146484375 194.3665008544922 C 146.3319854736328 194.2939300537109 146.0108032226562 194.0575866699219 145.8321533203125 193.7140350341797 C 144.4821929931641 191.1190032958984 141.8327331542969 189.5068664550781 138.9177703857422 189.5068664550781 Z" stroke="none" fill="#fff"/>
        </g>
        <path id="Path_9936" data-name="Path 9936" d="M71.156,14.81v2.319l5.287,1.822,2.4,5.431h2.628l-1.086-5.431L76.443,14.81Z" transform="translate(-70.156 -13.783)" fill="#fff"/>
      </g>
      <g id="Group_3052" data-name="Group 3052" transform="translate(36.925 9.508)">
        <path id="Path_9934" data-name="Path 9934" d="M141.943,193.993a1.252,1.252,0,0,0,2.5,0,6.2,6.2,0,0,0-.179-1.483.3.3,0,0,0-.576.142,5.608,5.608,0,0,1,.162,1.341.658.658,0,0,1-1.316,0,4.291,4.291,0,0,0-4.286-4.286.658.658,0,1,1,0-1.316,5.592,5.592,0,0,1,4.974,3.026.3.3,0,1,0,.527-.274,6.183,6.183,0,0,0-5.5-3.345,1.252,1.252,0,1,0,0,2.5A3.7,3.7,0,0,1,141.943,193.993Z" transform="translate(-136.999 -187.797)" fill="#fff" stroke="#fff" stroke-width="1.5"/>
        <path id="Path_9937" data-name="Path 9937" d="M68.743,20.768l2.921,1.019,1.734,1.6,1.231,2.295V27.9H73.4l-1.183-2.216-.552-1.612-2.248-1.263H67.748V21.786Z" transform="translate(-67.433 -20.768)" fill="#fff"/>
      </g>
      <g id="Group_3051-2" data-name="Group 3051" transform="translate(-18.854 -22.768)">
        <g id="Path_9935-2" data-name="Path 9935" transform="translate(-66.843 -174.014)" fill="#fff">
          <path d="M 146.4965057373047 199.6131439208984 C 145.2180023193359 199.6131439208984 144.1778564453125 198.5730133056641 144.1778564453125 197.2945098876953 C 144.1778564453125 194.3940277099609 141.8181762695312 192.0343170166016 138.9177093505859 192.0343170166016 C 137.63916015625 192.0343170166016 136.5989990234375 190.9941864013672 136.5989990234375 189.7156829833984 C 136.5989990234375 188.4371643066406 137.63916015625 187.3970184326172 138.9177093505859 187.3970184326172 C 142.6226501464844 187.3970184326172 145.9893493652344 189.4444885253906 147.7039337158203 192.7404327392578 C 147.9214935302734 193.1585845947266 147.7582702636719 193.6758422851562 147.340087890625 193.8934326171875 C 147.2187194824219 193.9566192626953 147.0823974609375 193.9900360107422 146.9459228515625 193.9900360107422 C 146.6255493164062 193.9900360107422 146.3347473144531 193.8135681152344 146.1870422363281 193.5294799804688 C 144.7679290771484 190.8015441894531 141.9824981689453 189.1068572998047 138.9177703857422 189.1068572998047 C 138.5820465087891 189.1068572998047 138.3089294433594 189.3799743652344 138.3089294433594 189.7156829833984 C 138.3089294433594 190.0513458251953 138.5820465087891 190.3244476318359 138.9177703857422 190.3244476318359 C 142.7610626220703 190.3244476318359 145.8878173828125 193.4512023925781 145.8878173828125 197.2945098876953 C 145.8878173828125 197.6301879882812 146.1609039306641 197.9032745361328 146.49658203125 197.9032745361328 C 146.832275390625 197.9032745361328 147.1053771972656 197.6301879882812 147.1053771972656 197.2945098876953 C 147.1053771972656 196.6319427490234 147.0256652832031 195.9725952148438 146.8684539794922 195.3348236083984 C 146.8137664794922 195.1131439208984 146.8487091064453 194.8833770751953 146.9668731689453 194.6879119873047 C 147.0850219726562 194.4924774169922 147.272216796875 194.3547515869141 147.4939575195312 194.3001098632812 C 147.5607147216797 194.2835388183594 147.6299285888672 194.2750549316406 147.6990356445312 194.2750549316406 C 148.0931396484375 194.2750549316406 148.4342956542969 194.5425720214844 148.5286560058594 194.9255981445312 C 148.7187957763672 195.6969451904297 148.8152008056641 196.4939727783203 148.8152008056641 197.2945098876953 C 148.8152008056641 198.5730133056641 147.7750396728516 199.6131439208984 146.4965057373047 199.6131439208984 Z" stroke="none"/>
          <path d="M 146.4965057373047 199.2131500244141 C 147.5544586181641 199.2131500244141 148.4152069091797 198.3524627685547 148.4152069091797 197.2945098876953 C 148.4152069091797 196.5261993408203 148.3227081298828 195.7614288330078 148.1402587890625 195.0212860107422 C 148.0801544189453 194.7772827148438 147.8331909179688 194.6280517578125 147.5896606445312 194.6884918212891 C 147.3456878662109 194.7486114501953 147.1966400146484 194.9951324462891 147.2568206787109 195.2390899658203 C 147.4217224121094 195.9080352783203 147.5053863525391 196.5995330810547 147.5053863525391 197.2945098876953 C 147.5053863525391 197.8507537841797 147.0528106689453 198.3032684326172 146.49658203125 198.3032684326172 C 145.9403381347656 198.3032684326172 145.4878082275391 197.8507537841797 145.4878082275391 197.2945098876953 C 145.4878082275391 193.6717987060547 142.5405578613281 190.7244415283203 138.9177703857422 190.7244415283203 C 138.3615112304688 190.7244415283203 137.908935546875 190.2719573974609 137.908935546875 189.7156829833984 C 137.908935546875 189.1594696044922 138.3615112304688 188.7068634033203 138.9177703857422 188.7068634033203 C 142.1322631835938 188.7068634033203 145.0536651611328 190.4840545654297 146.5419311523438 193.3449554443359 C 146.6578521728516 193.56787109375 146.9327239990234 193.6545867919922 147.1554565429688 193.5385894775391 C 147.3783874511719 193.4225921630859 147.4650421142578 193.1479339599609 147.3490753173828 192.9250335693359 C 145.7035827636719 189.7619171142578 142.4728393554688 187.7970123291016 138.9177093505859 187.7970123291016 C 137.8597564697266 187.7970123291016 136.9989929199219 188.6576995849609 136.9989929199219 189.7156829833984 C 136.9989929199219 190.7736358642578 137.8597106933594 191.6343231201172 138.9177093505859 191.6343231201172 C 142.0387725830078 191.6343231201172 144.5778656005859 194.1734466552734 144.5778656005859 197.2945098876953 C 144.5778656005859 198.3524627685547 145.4385833740234 199.2131500244141 146.4965057373047 199.2131500244141 M 146.4965057373047 200.0131530761719 C 144.9974365234375 200.0131530761719 143.7778625488281 198.7935638427734 143.7778625488281 197.2945098876953 C 143.7778625488281 194.6145935058594 141.5976104736328 192.434326171875 138.9177093505859 192.434326171875 C 137.4186096191406 192.434326171875 136.1989898681641 191.2147369384766 136.1989898681641 189.7156829833984 C 136.1989898681641 188.2165985107422 137.4186096191406 186.9970092773438 138.9177093505859 186.9970092773438 C 142.7724151611328 186.9970092773438 146.2750701904297 189.1270141601562 148.0587768554688 192.5558319091797 C 148.2905731201172 193.0013427734375 148.2279052734375 193.5234832763672 147.94140625 193.8984375 C 148.4133758544922 193.9906768798828 148.7983245849609 194.3480224609375 148.9170379638672 194.8299407958984 C 149.1148681640625 195.6324920654297 149.2151947021484 196.4617462158203 149.2151947021484 197.2945098876953 C 149.2151947021484 198.7935638427734 147.99560546875 200.0131530761719 146.4965057373047 200.0131530761719 Z M 138.9177703857422 189.5068664550781 C 138.8026275634766 189.5068664550781 138.7089385986328 189.6005401611328 138.7089385986328 189.7156829833984 C 138.7089385986328 189.8307952880859 138.8026275634766 189.9244384765625 138.9177703857422 189.9244384765625 C 142.9816284179688 189.9244384765625 146.2878112792969 193.2306365966797 146.2878112792969 197.2945098876953 C 146.2878112792969 197.4096221923828 146.3814697265625 197.5032653808594 146.49658203125 197.5032653808594 C 146.6117095947266 197.5032653808594 146.7053833007812 197.4096221923828 146.7053833007812 197.2945098876953 C 146.7053833007812 196.6641693115234 146.6295776367188 196.0370483398438 146.4800720214844 195.4305725097656 C 146.3998107910156 195.1051788330078 146.4511108398438 194.7678985595703 146.6245574951172 194.4809722900391 C 146.6486358642578 194.441162109375 146.6746673583984 194.4029541015625 146.7025146484375 194.3665008544922 C 146.3319854736328 194.2939300537109 146.0108032226562 194.0575866699219 145.8321533203125 193.7140350341797 C 144.4821929931641 191.1190032958984 141.8327331542969 189.5068664550781 138.9177703857422 189.5068664550781 Z" stroke="none" fill="#fff"/>
        </g>
        <path id="Path_9936-2" data-name="Path 9936" d="M71.156,14.81v2.319l5.287,1.822,2.4,5.431h2.628l-1.086-5.431L76.443,14.81Z" fill="#fff"/>
      </g>
      <g id="Group_3052-2" data-name="Group 3052" transform="translate(-18.854 -22.768)">
        <path id="Path_9934-2" data-name="Path 9934" d="M141.943,193.993a1.252,1.252,0,0,0,2.5,0,6.2,6.2,0,0,0-.179-1.483.3.3,0,0,0-.576.142,5.608,5.608,0,0,1,.162,1.341.658.658,0,0,1-1.316,0,4.291,4.291,0,0,0-4.286-4.286.658.658,0,1,1,0-1.316,5.592,5.592,0,0,1,4.974,3.026.3.3,0,1,0,.527-.274,6.183,6.183,0,0,0-5.5-3.345,1.252,1.252,0,1,0,0,2.5A3.7,3.7,0,0,1,141.943,193.993Z" transform="translate(-69.566 -167.029)" fill="#fff" stroke="#fff" stroke-width="1.5"/>
        <path id="Path_9937-2" data-name="Path 9937" d="M68.743,20.768l2.921,1.019,1.734,1.6,1.231,2.295V27.9H73.4l-1.183-2.216-.552-1.612-2.248-1.263H67.748V21.786Z" fill="#fff"/>
      </g>
    </g>
  </g>
</svg>
